<svg width="100" height="31" viewBox="0 0 100 31" fill="none" xmlns="http://www.w3.org/2000/svg">
<g clip-path="url(#clip0_51_13383)">
<g clip-path="url(#clip1_51_13383)">
<g clip-path="url(#clip2_51_13383)">
<mask id="mask0_51_13383" style="mask-type:luminance" maskUnits="userSpaceOnUse" x="0" y="0" width="99" height="31">
<path d="M98.9 0.825684H0.5V30.3377H98.9V0.825684Z" fill="white"/>
</mask>
<g mask="url(#mask0_51_13383)">
<path d="M15.256 0.825684C12.3376 0.825881 9.48474 1.69147 7.05826 3.313C4.63178 4.93453 2.74062 7.23918 1.62393 9.9355C0.507236 12.6318 0.215161 15.5987 0.784638 18.461C1.35411 21.3234 2.75957 23.9525 4.82327 26.0161C6.88697 28.0797 9.51624 29.4849 12.3786 30.0542C15.241 30.6235 18.2078 30.3312 20.9041 29.2144C23.6003 28.0975 25.9049 26.2062 27.5262 23.7796C29.1476 21.353 30.013 18.5001 30.013 15.5817C30.013 13.6438 29.6313 11.7249 28.8897 9.93458C28.148 8.14423 27.061 6.5175 25.6907 5.14726C24.3204 3.77703 22.6936 2.69013 20.9032 1.94863C19.1128 1.20713 17.1939 0.825552 15.256 0.825684ZM22.023 22.1077C21.9596 22.2105 21.8767 22.2998 21.7788 22.3705C21.681 22.4412 21.5701 22.4919 21.4526 22.5198C21.3352 22.5477 21.2134 22.5521 21.0942 22.5329C20.975 22.5136 20.8607 22.4711 20.758 22.4077C17.293 20.2917 12.932 19.8077 7.79498 20.9857C7.55708 21.0399 7.30738 20.9974 7.10081 20.8676C6.89424 20.7377 6.74772 20.5311 6.69348 20.2932C6.63925 20.0553 6.68174 19.8056 6.8116 19.599C6.94147 19.3924 7.14808 19.2459 7.38598 19.1917C13.007 17.9077 17.829 18.4607 21.718 20.8377C21.8218 20.9007 21.912 20.9837 21.9836 21.0817C22.0552 21.1798 22.1066 21.2911 22.135 21.4092C22.1633 21.5272 22.168 21.6497 22.1488 21.7696C22.1296 21.8895 22.0868 22.0044 22.023 22.1077ZM23.829 18.0897C23.6695 18.3497 23.4133 18.5359 23.1166 18.6071C22.82 18.6784 22.5072 18.6289 22.247 18.4697C17.768 15.9726 12.4816 15.3537 7.54698 16.7487C7.25525 16.8379 6.94 16.8076 6.67061 16.6644C6.40121 16.5213 6.19973 16.2769 6.11048 15.9852C6.02124 15.6934 6.05154 15.3782 6.19472 15.1088C6.33791 14.8394 6.58224 14.6379 6.87398 14.5487C9.62784 13.7559 12.5123 13.5209 15.3581 13.8574C18.204 14.194 20.954 15.0954 23.447 16.5087C23.5758 16.5876 23.6877 16.6912 23.7765 16.8135C23.8653 16.9357 23.929 17.0742 23.9642 17.2212C23.9994 17.3681 24.0053 17.5205 23.9816 17.6697C23.9579 17.8189 23.905 17.9619 23.826 18.0907L23.829 18.0897ZM23.984 13.9057C19.228 11.0807 11.384 10.8207 6.84098 12.1997C6.66648 12.2562 6.48246 12.2773 6.2997 12.2618C6.11693 12.2464 5.93908 12.1946 5.77655 12.1096C5.61401 12.0246 5.47005 11.9081 5.35308 11.7668C5.2361 11.6255 5.14847 11.4624 5.09529 11.2868C5.04212 11.1113 5.02447 10.9269 5.04339 10.7445C5.0623 10.562 5.11739 10.3852 5.20544 10.2243C5.29349 10.0634 5.41273 9.92163 5.5562 9.80735C5.69966 9.69307 5.86447 9.60853 6.04098 9.55868C11.253 7.97668 19.918 8.28168 25.394 11.5327C25.5499 11.6251 25.686 11.7474 25.7946 11.8924C25.9033 12.0375 25.9823 12.2026 26.0271 12.3782C26.072 12.5537 26.0818 12.7365 26.056 12.9158C26.0303 13.0952 25.9694 13.2678 25.877 13.4237C25.7845 13.5796 25.6623 13.7157 25.5172 13.8243C25.3722 13.933 25.2071 14.012 25.0315 14.0568C24.8559 14.1017 24.6732 14.1115 24.4938 14.0857C24.3144 14.06 24.1419 13.9991 23.986 13.9067L23.984 13.9057ZM40.647 14.4487C38.099 13.8407 37.647 13.4147 37.647 12.5187C37.647 11.6717 38.447 11.1027 39.629 11.1027C40.9037 11.1482 42.1277 11.6133 43.111 12.4257C43.1289 12.4389 43.1492 12.4484 43.1708 12.4537C43.1923 12.4589 43.2148 12.4599 43.2367 12.4564C43.2587 12.453 43.2797 12.4452 43.2986 12.4336C43.3176 12.422 43.334 12.4067 43.347 12.3887L44.591 10.6347C44.6156 10.5999 44.626 10.557 44.6201 10.5148C44.6141 10.4726 44.5923 10.4343 44.559 10.4077C43.1804 9.28006 41.4467 8.67771 39.666 8.70768C36.915 8.70768 34.993 10.3587 34.993 12.7207C34.993 15.2537 36.651 16.1507 39.516 16.8427C41.953 17.4047 42.365 17.8747 42.365 18.7157C42.365 19.6477 41.533 20.2277 40.194 20.2277C38.6752 20.216 37.2203 19.6151 36.136 18.5517C36.1021 18.5228 36.0584 18.5082 36.014 18.5107C35.9919 18.5121 35.9703 18.518 35.9506 18.528C35.9308 18.538 35.9133 18.5518 35.899 18.5687L34.499 20.2287C34.4709 20.262 34.4569 20.3049 34.4599 20.3484C34.4629 20.3919 34.4826 20.4325 34.515 20.4617C36.0533 21.8554 38.0572 22.6234 40.133 22.6147C43.097 22.6147 45.012 20.9957 45.012 18.4877C45.017 16.3717 43.75 15.1997 40.647 14.4457H40.642L40.647 14.4487ZM51.723 11.9357C51.1053 11.9276 50.4941 12.0627 49.9373 12.3304C49.3806 12.5981 48.8934 12.9912 48.514 13.4787V12.3107C48.5141 12.2888 48.5099 12.2671 48.5016 12.2469C48.4934 12.2266 48.4811 12.2082 48.4657 12.1927C48.4503 12.1771 48.4319 12.1648 48.4117 12.1564C48.3915 12.148 48.3699 12.1437 48.348 12.1437H46.067C46.0451 12.1437 46.0234 12.148 46.0032 12.1564C45.983 12.1648 45.9647 12.1771 45.9492 12.1927C45.9338 12.2082 45.9216 12.2266 45.9133 12.2469C45.905 12.2671 45.9008 12.2888 45.901 12.3107V25.2797C45.901 25.3238 45.9184 25.3661 45.9495 25.3974C45.9806 25.4287 46.0229 25.4464 46.067 25.4467H48.347C48.3911 25.4464 48.4333 25.4287 48.4644 25.3974C48.4955 25.3661 48.513 25.3238 48.513 25.2797V21.1867C48.9064 21.6519 49.3985 22.0237 49.9536 22.2748C50.5087 22.526 51.1128 22.6503 51.722 22.6387C54.11 22.6387 56.527 20.8007 56.527 17.2877C56.527 13.7747 54.113 11.9347 51.727 11.9347L51.723 11.9357ZM53.875 17.2877C53.9149 17.6664 53.8758 18.0494 53.76 18.4122C53.6442 18.775 53.4544 19.1099 53.2024 19.3955C52.9505 19.6811 52.6419 19.9112 52.2964 20.0714C51.9508 20.2315 51.5758 20.3181 51.195 20.3257C50.8133 20.3135 50.438 20.2243 50.0916 20.0634C49.7453 19.9026 49.4349 19.6734 49.1793 19.3897C48.9237 19.106 48.7281 18.7735 48.6041 18.4123C48.4801 18.0511 48.4304 17.6686 48.458 17.2877C48.4303 16.9067 48.4799 16.5241 48.6038 16.1627C48.7277 15.8014 48.9233 15.4688 49.1789 15.185C49.4346 14.9012 49.7449 14.6719 50.0914 14.511C50.4378 14.3501 50.8132 14.2609 51.195 14.2487C51.5742 14.2607 51.947 14.3502 52.2904 14.5117C52.6337 14.6733 52.9404 14.9034 53.1915 15.1879C53.4425 15.4724 53.6327 15.8053 53.7503 16.1661C53.8678 16.5268 53.9102 16.9079 53.875 17.2857V17.2877ZM62.722 11.9357C61.6653 11.9556 60.6381 12.2872 59.7694 12.889C58.9006 13.4907 58.2289 14.3358 57.8388 15.3179C57.4487 16.3001 57.3574 17.3757 57.5765 18.4095C57.7956 19.4434 58.3153 20.3895 59.0702 21.129C59.8252 21.8685 60.7819 22.3685 61.8201 22.5661C62.8583 22.7638 63.9317 22.6502 64.9056 22.2399C65.8795 21.8295 66.7104 21.1405 67.294 20.2594C67.8777 19.3784 68.188 18.3445 68.186 17.2877C68.1824 16.5764 68.0378 15.8729 67.7605 15.2179C67.4832 14.5629 67.0788 13.9693 66.5707 13.4716C66.0626 12.9739 65.4608 12.5819 64.8001 12.3182C64.1395 12.0546 63.4332 11.9246 62.722 11.9357ZM62.722 20.3437C62.3303 20.3401 61.9434 20.2571 61.5846 20.0999C61.2258 19.9426 60.9026 19.7143 60.6345 19.4287C60.3664 19.1431 60.1589 18.8062 60.0246 18.4382C59.8903 18.0702 59.8319 17.6788 59.853 17.2877C59.8276 16.9004 59.8821 16.5121 60.013 16.1467C60.1439 15.7814 60.3485 15.4468 60.614 15.1638C60.8795 14.8807 61.2003 14.6552 61.5566 14.5013C61.9128 14.3473 62.2969 14.2681 62.685 14.2687C63.0778 14.2714 63.466 14.3537 63.8262 14.5104C64.1863 14.6672 64.5111 14.8953 64.7807 15.181C65.0504 15.4666 65.2594 15.8039 65.3952 16.1725C65.5311 16.5411 65.5908 16.9334 65.571 17.3257C65.5954 17.7141 65.5397 18.1034 65.4074 18.4694C65.275 18.8354 65.0689 19.1702 64.8017 19.4532C64.5346 19.7362 64.2121 19.9613 63.8544 20.1145C63.4966 20.2677 63.1112 20.3457 62.722 20.3437ZM74.752 12.1437H72.241V9.57668C72.2411 9.5548 72.2369 9.53311 72.2286 9.51285C72.2204 9.49259 72.2081 9.47418 72.1927 9.45866C72.1773 9.44314 72.1589 9.43082 72.1387 9.42241C72.1185 9.41401 72.0969 9.40968 72.075 9.40968H69.794C69.7498 9.40995 69.7075 9.42762 69.6762 9.45889C69.6449 9.49015 69.6272 9.53247 69.627 9.57668V12.1437H68.527C68.5051 12.1437 68.4834 12.148 68.4632 12.1564C68.443 12.1648 68.4247 12.1771 68.4092 12.1927C68.3938 12.2082 68.3816 12.2266 68.3733 12.2469C68.3651 12.2671 68.3609 12.2888 68.361 12.3107V14.2717C68.361 14.3158 68.3784 14.3581 68.4095 14.3894C68.4407 14.4207 68.4829 14.4384 68.527 14.4387H69.627V19.5127C69.627 21.5617 70.647 22.6017 72.661 22.6017C73.4079 22.6196 74.1457 22.4358 74.797 22.0697C74.8228 22.0556 74.8444 22.0348 74.8594 22.0094C74.8743 21.9841 74.8821 21.9551 74.882 21.9257V20.0567C74.8819 20.0284 74.8746 20.0006 74.8608 19.9759C74.847 19.9512 74.8271 19.9305 74.803 19.9157C74.779 19.9004 74.7514 19.8917 74.7229 19.8905C74.6945 19.8892 74.6662 19.8955 74.641 19.9087C74.2273 20.1227 73.7678 20.2332 73.302 20.2307C72.571 20.2307 72.243 19.8977 72.243 19.1537V14.4397H74.754C74.7759 14.4397 74.7975 14.4354 74.8177 14.427C74.8379 14.4185 74.8563 14.4062 74.8717 14.3907C74.8871 14.3752 74.8994 14.3568 74.9076 14.3365C74.9159 14.3163 74.9201 14.2946 74.92 14.2727V12.3127C74.9207 12.2908 74.9169 12.2691 74.9089 12.2487C74.901 12.2283 74.889 12.2098 74.8736 12.1942C74.8583 12.1786 74.84 12.1662 74.8198 12.1579C74.7996 12.1496 74.7779 12.1454 74.756 12.1457L74.752 12.1437ZM83.499 12.1537V11.8387C83.499 10.9117 83.855 10.4977 84.651 10.4977C85.09 10.5029 85.5249 10.583 85.937 10.7347C85.9621 10.7431 85.9889 10.7455 86.015 10.7415C86.0412 10.7375 86.0661 10.7273 86.0875 10.7117C86.109 10.6961 86.1264 10.6757 86.1383 10.652C86.1502 10.6283 86.1562 10.6022 86.156 10.5757V8.64868C86.1564 8.61281 86.1451 8.57779 86.1238 8.54892C86.1025 8.52005 86.0724 8.4989 86.038 8.48868C85.4224 8.30073 84.7815 8.20898 84.138 8.21668C82.032 8.21668 80.917 9.40368 80.917 11.6467V12.1297H79.817C79.7728 12.1299 79.7305 12.1476 79.6992 12.1789C79.6679 12.2101 79.6502 12.2525 79.65 12.2967V14.2677C79.6502 14.3119 79.6679 14.3542 79.6992 14.3855C79.7305 14.4167 79.7728 14.4344 79.817 14.4347H80.917V22.2597C80.917 22.304 80.9346 22.3465 80.9659 22.3778C80.9972 22.4091 81.0397 22.4267 81.084 22.4267H83.364C83.3859 22.4268 83.4077 22.4226 83.4281 22.4142C83.4484 22.4059 83.4668 22.3936 83.4824 22.3781C83.4979 22.3625 83.5102 22.3441 83.5185 22.3237C83.5269 22.3034 83.5311 22.2817 83.531 22.2597V14.4397H85.661L88.924 22.2637C88.554 23.0847 88.189 23.2487 87.692 23.2487C87.2491 23.2377 86.8163 23.1145 86.434 22.8907C86.3931 22.8702 86.3459 22.8659 86.302 22.8787C86.28 22.8859 86.2597 22.8976 86.2425 22.9131C86.2252 22.9286 86.2114 22.9475 86.202 22.9687L85.428 24.6687C85.4101 24.7072 85.4077 24.7511 85.421 24.7914C85.4344 24.8317 85.4626 24.8655 85.5 24.8857C86.2418 25.3063 87.0823 25.5217 87.935 25.5097C89.62 25.5097 90.552 24.7237 91.371 22.6097L95.337 12.3817C95.3468 12.3566 95.3505 12.3294 95.3475 12.3026C95.3446 12.2757 95.3352 12.25 95.3202 12.2276C95.3052 12.2052 95.2849 12.1868 95.2612 12.1739C95.2375 12.161 95.211 12.1541 95.184 12.1537H92.808C92.7731 12.1534 92.739 12.1641 92.7105 12.1841C92.682 12.2042 92.6605 12.2327 92.649 12.2657L90.216 19.2147L87.547 12.2617C87.535 12.2302 87.5138 12.2032 87.4861 12.1841C87.4585 12.165 87.4256 12.1547 87.392 12.1547H83.492L83.499 12.1537ZM78.428 12.1437H76.147C76.1028 12.1439 76.0605 12.1616 76.0292 12.1929C75.9979 12.2241 75.9802 12.2665 75.98 12.3107V22.2627C75.98 22.2846 75.9843 22.3063 75.9927 22.3266C76.0011 22.3469 76.0134 22.3653 76.0289 22.3808C76.0444 22.3963 76.0628 22.4086 76.0831 22.417C76.1033 22.4254 76.1251 22.4297 76.147 22.4297H78.429C78.4509 22.4297 78.4726 22.4254 78.4929 22.417C78.5132 22.4086 78.5316 22.3963 78.5471 22.3808C78.5626 22.3653 78.5749 22.3469 78.5833 22.3266C78.5917 22.3063 78.596 22.2846 78.596 22.2627V12.3117C78.596 12.2674 78.5784 12.2249 78.5471 12.1936C78.5158 12.1623 78.4733 12.1447 78.429 12.1447L78.428 12.1437ZM77.3 7.61168C76.9764 7.61149 76.6601 7.70724 76.3909 7.88684C76.1218 8.06645 75.9119 8.32183 75.7879 8.62069C75.6639 8.91955 75.6313 9.24848 75.6942 9.56587C75.7572 9.88326 75.9128 10.1749 76.1415 10.4038C76.3701 10.6327 76.6615 10.7887 76.9788 10.8521C77.2962 10.9154 77.6251 10.8832 77.9241 10.7595C78.2232 10.6359 78.4788 10.4264 78.6587 10.1574C78.8386 9.8885 78.9348 9.57225 78.935 9.24868C78.9351 9.03384 78.8929 8.82108 78.8108 8.62254C78.7287 8.424 78.6083 8.24357 78.4565 8.09156C78.3047 7.93955 78.1244 7.81894 77.926 7.7366C77.7275 7.65426 77.5148 7.61181 77.3 7.61168ZM97.286 15.3487C96.9679 15.3479 96.6573 15.2529 96.3931 15.0758C96.129 14.8986 95.9233 14.6472 95.8019 14.3532C95.6805 14.0592 95.6489 13.7359 95.7111 13.424C95.7732 13.1121 95.9264 12.8256 96.1512 12.6006C96.376 12.3756 96.6624 12.2223 96.9743 12.1599C97.2862 12.0976 97.6095 12.129 97.9036 12.2502C98.1976 12.3714 98.4492 12.577 98.6265 12.841C98.8038 13.105 98.899 13.4156 98.9 13.7337C98.902 13.9462 98.8616 14.1571 98.7812 14.3538C98.7008 14.5506 98.582 14.7294 98.4318 14.8798C98.2815 15.0301 98.1028 15.149 97.9061 15.2295C97.7093 15.31 97.4985 15.3506 97.286 15.3487ZM97.295 12.2887C97.0074 12.2859 96.7255 12.3687 96.4851 12.5266C96.2447 12.6844 96.0567 12.9102 95.9449 13.1752C95.8332 13.4402 95.8028 13.7324 95.8575 14.0147C95.9123 14.2971 96.0498 14.5567 96.2525 14.7607C96.4552 14.9647 96.714 15.1038 96.996 15.1603C97.278 15.2169 97.5704 15.1883 97.8361 15.0782C98.1018 14.9681 98.3287 14.7815 98.4881 14.5421C98.6474 14.3027 98.732 14.0213 98.731 13.7337C98.7322 13.5443 98.6959 13.3566 98.6243 13.1814C98.5526 13.0061 98.447 12.8468 98.3136 12.7125C98.1801 12.5782 98.0214 12.4716 97.8466 12.3988C97.6718 12.3261 97.4843 12.2887 97.295 12.2887ZM97.651 13.8987L98.106 14.5347H97.722L97.313 13.9517H96.962V14.5347H96.641V12.8487H97.392C97.785 12.8487 98.042 13.0487 98.042 13.3867C98.0477 13.5041 98.0118 13.6199 97.9407 13.7135C97.8696 13.8071 97.7677 13.8727 97.653 13.8987H97.651ZM97.38 13.1387H96.962V13.6717H97.38C97.588 13.6717 97.713 13.5717 97.713 13.4047C97.713 13.2377 97.587 13.1337 97.379 13.1337L97.38 13.1387Z" fill="#05073C"/>
</g>
</g>
</g>
</g>
<defs>
<clipPath id="clip0_51_13383">
<rect width="100" height="30" fill="white" transform="translate(0 0.5)"/>
</clipPath>
<clipPath id="clip1_51_13383">
<rect width="100" height="30" fill="white" transform="translate(0 0.5)"/>
</clipPath>
<clipPath id="clip2_51_13383">
<rect width="99" height="30" fill="white" transform="translate(0.5 0.5)"/>
</clipPath>
</defs>
</svg>
