<svg width="19" height="18" viewBox="0 0 19 18" fill="none" xmlns="http://www.w3.org/2000/svg">
<path d="M13.2046 3.9375H15.4546V6.1875H13.2046V3.9375Z" fill="#0D7434"/>
<path d="M13.2046 7.3125H15.4546V9.5625H13.2046V7.3125Z" fill="#0D7434"/>
<path d="M9.82959 3.9375H12.0796V6.1875H9.82959V3.9375Z" fill="#0D7434"/>
<path d="M9.82959 7.3125H12.0796V9.5625H9.82959V7.3125Z" fill="#0D7434"/>
<path d="M8.42334 14.625C8.88933 14.625 9.26709 14.2472 9.26709 13.7812C9.26709 13.3153 8.88933 12.9375 8.42334 12.9375C7.95735 12.9375 7.57959 13.3153 7.57959 13.7812C7.57959 14.2472 7.95735 14.625 8.42334 14.625Z" fill="#0D7434"/>
<path d="M12.0796 16.875H4.76709C4.46881 16.8747 4.18284 16.7561 3.97192 16.5452C3.76101 16.3343 3.64239 16.0483 3.64209 15.75V2.25C3.64239 1.95172 3.76101 1.66575 3.97192 1.45483C4.18284 1.24392 4.46881 1.1253 4.76709 1.125H12.0796V2.25H4.76709V15.75H12.0796V11.25H13.2046V15.75C13.2043 16.0483 13.0857 16.3343 12.8748 16.5452C12.6638 16.7561 12.3779 16.8747 12.0796 16.875Z" fill="#0D7434"/>
</svg>
