<svg width="51" height="50" viewBox="0 0 51 50" fill="none" xmlns="http://www.w3.org/2000/svg">
<circle cx="25.1482" cy="25" r="25" fill="#0D7434"/>
<path d="M33.8144 14.6987H32.7094V12.8572H30.8679V14.6987H18.7139V12.8572H16.8724V14.6987H15.7675C14.2444 14.6987 13.0052 15.9379 13.0052 17.461V33.6663C13.0052 35.1894 14.2444 36.4286 15.7675 36.4286H33.8144C35.3375 36.4286 36.5766 35.1894 36.5766 33.6663V17.461C36.5766 15.9379 35.3375 14.6987 33.8144 14.6987ZM34.7351 33.6663C34.7351 34.174 34.3221 34.5871 33.8144 34.5871H15.7675C15.2598 34.5871 14.8467 34.174 14.8467 33.6663V21.5123H34.7351V33.6663ZM34.7351 19.6708H14.8467V17.461C14.8467 16.9533 15.2598 16.5402 15.7675 16.5402H16.8724V18.3817H18.7139V16.5402H30.8679V18.3817H32.7094V16.5402H33.8144C34.3221 16.5402 34.7351 16.9533 34.7351 17.461V19.6708Z" fill="white"/>
<path d="M18.3459 23.4459H16.5043V25.2874H18.3459V23.4459Z" fill="white"/>
<path d="M22.0289 23.4459H20.1873V25.2874H22.0289V23.4459Z" fill="white"/>
<path d="M25.7118 23.4459H23.8703V25.2874H25.7118V23.4459Z" fill="white"/>
<path d="M29.3948 23.4459H27.5533V25.2874H29.3948V23.4459Z" fill="white"/>
<path d="M33.0778 23.4459H31.2363V25.2874H33.0778V23.4459Z" fill="white"/>
<path d="M18.3459 27.1289H16.5043V28.9704H18.3459V27.1289Z" fill="white"/>
<path d="M22.0289 27.1289H20.1873V28.9704H22.0289V27.1289Z" fill="white"/>
<path d="M25.7118 27.1289H23.8703V28.9704H25.7118V27.1289Z" fill="white"/>
<path d="M29.3948 27.1289H27.5533V28.9704H29.3948V27.1289Z" fill="white"/>
<path d="M18.3459 30.812H16.5043V32.6535H18.3459V30.812Z" fill="white"/>
<path d="M22.0289 30.812H20.1873V32.6535H22.0289V30.812Z" fill="white"/>
<path d="M25.7118 30.812H23.8703V32.6535H25.7118V30.812Z" fill="white"/>
<path d="M29.3948 30.812H27.5533V32.6535H29.3948V30.812Z" fill="white"/>
<path d="M33.0778 27.1289H31.2363V28.9704H33.0778V27.1289Z" fill="white"/>
</svg>
