<svg width="40" height="38" viewBox="0 0 40 38" fill="none" xmlns="http://www.w3.org/2000/svg">
<path d="M38.8281 35.5566C37.5348 35.5566 36.9513 35.266 36.2126 34.8982C35.9077 34.7464 35.588 34.5875 35.2188 34.4458L39.177 24.0332C39.485 23.2227 39.4339 22.316 39.0366 21.5453C38.6394 20.7747 37.9304 20.2071 37.0916 19.9879L34.3662 19.2758V11.1018C34.3662 9.3864 32.9705 7.99074 31.2551 7.99074H25.8761V4.96621C25.8761 2.55839 23.9172 0.599487 21.5094 0.599487H18.4907C16.0829 0.599487 14.124 2.55839 14.124 4.96621V7.99066H8.745C7.02953 7.99066 5.63391 9.3863 5.63391 11.1018V19.2758L2.90844 19.9879C2.06961 20.2071 1.36063 20.7747 0.963437 21.5453C0.56625 22.316 0.515 23.2227 0.823125 24.0332L4.78125 34.446C4.41219 34.5876 4.0925 34.7464 3.78773 34.8982C3.04891 35.266 2.46539 35.5567 1.17188 35.5567C0.524687 35.5567 0 36.0814 0 36.7285C0 37.3757 0.524687 37.9004 1.17188 37.9004C3.01656 37.9004 3.98125 37.4201 4.83234 36.9964C5.57117 36.6285 6.15469 36.3379 7.4482 36.3379C8.74172 36.3379 9.32524 36.6285 10.0641 36.9964C10.9152 37.4201 11.8798 37.9004 13.7245 37.9004C15.5691 37.9004 16.5337 37.4201 17.3849 36.9964C18.1237 36.6285 18.7072 36.3379 20.0005 36.3379C21.2939 36.3379 21.8773 36.6285 22.6161 36.9964C23.4672 37.4201 24.4318 37.9004 26.2764 37.9004C28.121 37.9004 29.0856 37.4201 29.9367 36.9964C30.6755 36.6285 31.259 36.3379 32.5523 36.3379C33.8457 36.3379 34.4291 36.6285 35.1679 36.9964C36.019 37.4201 36.9836 37.9004 38.8282 37.9004C39.4754 37.9004 40.0001 37.3757 40.0001 36.7285C40.0001 36.0814 39.4753 35.5566 38.8281 35.5566ZM16.4677 4.96621C16.4677 3.85074 17.3752 2.94324 18.4907 2.94324H21.5094C22.6248 2.94324 23.5323 3.85074 23.5323 4.96621V7.99066H16.4677V4.96621ZM7.97758 11.1018C7.97758 10.6787 8.3218 10.3345 8.74492 10.3345H31.255C31.6781 10.3345 32.0223 10.6787 32.0223 11.1018V18.6635L20.2962 15.5996C20.102 15.5489 19.8979 15.5489 19.7037 15.5996L7.9775 18.6635L7.97758 11.1018ZM28.892 34.8982C28.1532 35.266 27.5697 35.5566 26.2764 35.5566C24.9831 35.5566 24.3996 35.266 23.6609 34.8982C22.8098 34.4744 21.8452 33.9941 20.0005 33.9941C18.1559 33.9941 17.1913 34.4744 16.3402 34.8982C15.6014 35.266 15.0179 35.5566 13.7245 35.5566C12.4311 35.5566 11.8475 35.266 11.1088 34.8982C10.2577 34.4744 9.29297 33.9941 7.44828 33.9941C7.33523 33.9941 7.22555 33.996 7.11891 33.9994L3.01383 23.2003C2.91531 22.9412 2.99211 22.7251 3.04664 22.6193C3.10117 22.5135 3.23266 22.3257 3.50086 22.2556L20 17.9446L36.4991 22.2557C36.7673 22.3257 36.8988 22.5135 36.9534 22.6193C37.0079 22.7251 37.0847 22.9412 36.9862 23.2004L32.8812 33.9995C32.7747 33.996 32.6652 33.9942 32.5523 33.9942C30.7077 33.9941 29.743 34.4745 28.892 34.8982Z" fill="#0D7434"/>
</svg>
