<svg width="16" height="17" viewBox="0 0 16 17" fill="none" xmlns="http://www.w3.org/2000/svg">
<path d="M16 8.54813C16.0003 7.01922 15.5625 5.52223 14.7385 4.23441C13.9144 2.94659 12.7385 1.92189 11.3501 1.28164C9.96173 0.64138 8.41893 0.412384 6.90442 0.621765C5.38991 0.831145 3.96712 1.47013 2.80451 2.46306C1.6419 3.456 0.788165 4.76129 0.344396 6.22438C-0.0993733 7.68748 -0.114591 9.2471 0.300544 10.7186C0.71568 12.1901 1.54378 13.5118 2.68679 14.5272C3.82981 15.5426 5.23986 16.2092 6.75 16.4481V10.8601H4.719V8.54813H6.75V6.78513C6.70627 6.37358 6.7536 5.95745 6.88863 5.56623C7.02366 5.175 7.24309 4.81827 7.53136 4.52131C7.81964 4.22436 8.1697 3.99444 8.55674 3.84786C8.94379 3.70128 9.35833 3.64163 9.771 3.67313C10.371 3.68101 10.9696 3.73316 11.562 3.82913V5.80013H10.554C10.3823 5.77768 10.2077 5.79412 10.0432 5.84825C9.87874 5.90237 9.72853 5.99279 9.6037 6.11282C9.47887 6.23284 9.38263 6.3794 9.3221 6.54165C9.26157 6.70389 9.23829 6.87768 9.254 7.05013V8.55013H11.473L11.118 10.8621H9.25V16.4531C11.1322 16.1554 12.8464 15.1955 14.0838 13.7463C15.3213 12.2971 16.0008 10.4538 16 8.54813Z" fill="#0D7434"/>
</svg>
