<svg width="51" height="50" viewBox="0 0 51 50" fill="none" xmlns="http://www.w3.org/2000/svg">
<path d="M7.05638 7.76251C7.14214 6.7778 7.59511 5.86137 8.32534 5.19521C9.05556 4.52905 10.0096 4.1619 10.998 4.16667C11.9355 4.16667 12.8022 4.49167 13.4835 5.03542C14.2127 4.47234 15.108 4.16683 16.0293 4.16667C16.9876 4.16667 17.871 4.48959 18.5751 5.03542C19.2802 4.47072 20.1572 4.16417 21.0606 4.16667C23.0939 4.16667 24.8251 5.70209 25.0022 7.76251C25.1772 9.79376 25.4043 12.9354 25.4043 15.625C25.4045 17.2405 24.9872 18.8287 24.193 20.2354C23.3987 21.6422 22.2544 22.8199 20.871 23.6542C20.4085 23.9333 20.2876 24.2792 20.3001 24.4583C20.5647 28.4875 21.2376 38.9417 21.2376 40.6188C21.2376 42.0001 20.6889 43.3249 19.7121 44.3016C18.7354 45.2784 17.4106 45.8271 16.0293 45.8271C14.648 45.8271 13.3232 45.2784 12.3465 44.3016C11.3697 43.3249 10.821 42.0001 10.821 40.6188C10.821 38.9417 11.4939 28.4875 11.7585 24.4583C11.7689 24.2771 11.6501 23.9333 11.1876 23.6542C9.80424 22.8199 8.65991 21.6422 7.86564 20.2354C7.07137 18.8287 6.6541 17.2405 6.6543 15.625C6.6543 12.9375 6.88138 9.79376 7.05638 7.76251ZM20.196 15.1042C20.196 15.5186 20.0313 15.916 19.7383 16.209C19.4453 16.5021 19.0479 16.6667 18.6335 16.6667C18.2191 16.6667 17.8216 16.5021 17.5286 16.209C17.2356 15.916 17.071 15.5186 17.071 15.1042V8.33334C17.071 8.05707 16.9612 7.79212 16.7659 7.59677C16.5705 7.40142 16.3056 7.29167 16.0293 7.29167C15.753 7.29167 15.4881 7.40142 15.2927 7.59677C15.0974 7.79212 14.9876 8.05707 14.9876 8.33334V15.1042C14.9876 15.5186 14.823 15.916 14.53 16.209C14.237 16.5021 13.8395 16.6667 13.4251 16.6667C13.0107 16.6667 12.6133 16.5021 12.3203 16.209C12.0273 15.916 11.8626 15.5186 11.8626 15.1042V8.15626C11.8626 7.92695 11.7715 7.70705 11.6094 7.5449C11.4473 7.38276 11.2274 7.29167 10.998 7.29167C10.7922 7.28809 10.5925 7.36222 10.4388 7.49929C10.2851 7.63636 10.1888 7.8263 10.1689 8.03126C9.99596 10.0417 9.7793 13.0729 9.7793 15.625C9.7793 17.8958 10.9876 19.8833 12.8043 20.9792C13.9397 21.6667 14.9855 22.9792 14.8772 24.6625C14.6064 28.7875 13.946 39.075 13.946 40.6209C13.946 41.1734 14.1655 41.7033 14.5562 42.094C14.9469 42.4847 15.4768 42.7042 16.0293 42.7042C16.5818 42.7042 17.1117 42.4847 17.5024 42.094C17.8931 41.7033 18.1126 41.1734 18.1126 40.6209C18.1126 39.075 17.4522 28.7875 17.1814 24.6625C17.0731 22.9792 18.1189 21.6667 19.2543 20.9792C20.1773 20.4232 20.9408 19.638 21.4709 18.6999C22.0009 17.7617 22.2794 16.7025 22.2793 15.625C22.2793 13.075 22.0626 10.0417 21.8897 8.03126C21.8698 7.8263 21.7735 7.63636 21.6198 7.49929C21.4661 7.36222 21.2664 7.28809 21.0606 7.29167C20.8312 7.29167 20.6113 7.38276 20.4492 7.5449C20.2871 7.70705 20.196 7.92695 20.196 8.15626V15.1042ZM27.4876 16.1458C27.4876 12.9688 28.7497 9.92182 30.9963 7.67529C33.2428 5.42876 36.2897 4.16667 39.4668 4.16667C39.8812 4.16667 40.2786 4.33129 40.5717 4.62432C40.8647 4.91734 41.0293 5.31477 41.0293 5.72917V23.4375C41.0293 24.1 41.2501 27.3854 41.4981 31.025L41.5085 31.1979C41.7793 35.1729 42.071 39.4959 42.071 40.6188C42.071 42.0001 41.5222 43.3249 40.5455 44.3016C39.5687 45.2784 38.244 45.8271 36.8626 45.8271C35.4813 45.8271 34.1565 45.2784 33.1798 44.3016C32.203 43.3249 31.6543 42.0001 31.6543 40.6188C31.6543 39.5479 31.921 35.1792 32.1793 31.1729C32.3085 29.15 32.4397 27.1896 32.5376 25.7354L32.5856 25H31.1335C30.6547 25 30.1806 24.9057 29.7383 24.7225C29.2959 24.5393 28.894 24.2707 28.5555 23.9322C28.2169 23.5936 27.9484 23.1917 27.7652 22.7494C27.5819 22.307 27.4876 21.833 27.4876 21.3542V16.1458ZM35.8168 23.5458L35.7731 24.2C35.6089 26.5913 35.4498 28.983 35.296 31.375C35.0335 35.4584 34.7793 39.6792 34.7793 40.6188C34.7793 41.1713 34.9988 41.7012 35.3895 42.0919C35.7802 42.4826 36.3101 42.7021 36.8626 42.7021C37.4152 42.7021 37.9451 42.4826 38.3358 42.0919C38.7265 41.7012 38.946 41.1713 38.946 40.6188C38.946 39.6188 38.6585 35.3563 38.3793 31.2354L38.3647 31.0188C38.1293 27.5625 37.9043 24.2229 37.9043 23.4375V7.42917C35.8594 7.7958 34.0085 8.86982 32.6755 10.4633C31.3425 12.0568 30.6123 14.0683 30.6126 16.1458V21.3542C30.6126 21.6417 30.846 21.875 31.1335 21.875H34.2585C34.4728 21.8751 34.6847 21.9192 34.8812 22.0047C35.0777 22.0901 35.2546 22.2151 35.4007 22.3718C35.5469 22.5285 35.6592 22.7136 35.7308 22.9156C35.8024 23.1175 35.8317 23.3321 35.8168 23.5458Z" fill="#0D7434"/>
</svg>
