<svg width="40" height="41" viewBox="0 0 40 41" fill="none" xmlns="http://www.w3.org/2000/svg">
<mask id="mask0_51_13694" style="mask-type:luminance" maskUnits="userSpaceOnUse" x="0" y="0" width="40" height="41">
<path d="M40 0.25H0V40.25H40V0.25Z" fill="white"/>
</mask>
<g mask="url(#mask0_51_13694)">
<path d="M31.9141 7.67223H29.9609V2.98363C29.9609 2.10887 29.5377 1.28059 28.8289 0.768008C28.1201 0.25543 27.2009 0.112851 26.3701 0.386914L7.22938 6.69988C6.10617 7.07043 5.35156 8.11402 5.35156 9.29668V31.1354V37.5156C5.35156 39.0233 6.5782 40.25 8.08594 40.25H31.9141C33.4218 40.25 34.6484 39.0233 34.6484 37.5156V10.4066C34.6484 8.89895 33.4218 7.67223 31.9141 7.67223ZM32.3047 37.5156C32.3047 37.731 32.1295 37.9062 31.9141 37.9062H8.08594C7.87055 37.9062 7.69531 37.731 7.69531 37.5156V29.9636V10.4066C7.69531 10.1912 7.87055 10.016 8.08594 10.016H31.9141C32.1295 10.016 32.3047 10.1912 32.3047 10.4066V37.5156ZM27.1042 2.61269C27.2692 2.55832 27.3951 2.62348 27.4555 2.66715C27.5159 2.71082 27.6173 2.80996 27.6173 2.98363V7.6723H11.7639L27.1042 2.61269Z" fill="#0D7434"/>
<path d="M12.1875 23.5688H13.608H27.8125C28.4597 23.5688 28.9844 23.0441 28.9844 22.3969C28.9844 21.7497 28.4597 21.225 27.8125 21.225H27.473C26.9679 17.9908 24.4061 15.429 21.1719 14.9239V14.3367C21.1719 13.6895 20.6472 13.1648 20 13.1648C19.3528 13.1648 18.8281 13.6895 18.8281 14.3367V14.9239C15.5939 15.429 13.0321 17.9908 12.527 21.225H12.1875C11.5403 21.225 11.0156 21.7497 11.0156 22.3969C11.0156 23.0441 11.5403 23.5688 12.1875 23.5688ZM20 17.1767C22.4756 17.1767 24.5542 18.9091 25.0876 21.225H14.9124C15.4458 18.9091 17.5245 17.1767 20 17.1767Z" fill="#0D7434"/>
<path d="M12.6416 26.7347C11.9944 26.7347 11.4697 27.2594 11.4697 27.9066C11.4697 28.5538 11.9944 29.0785 12.6416 29.0785H18.2666C18.9138 29.0785 19.4385 28.5538 19.4385 27.9066C19.4385 27.2594 18.9138 26.7347 18.2666 26.7347H12.6416Z" fill="#0D7434"/>
<path d="M27.5195 31.4222H12.4805C11.8333 31.4222 11.3086 31.9469 11.3086 32.5941C11.3086 33.2413 11.8333 33.766 12.4805 33.766H27.5195C28.1667 33.766 28.6914 33.2413 28.6914 32.5941C28.6914 31.9469 28.1667 31.4222 27.5195 31.4222Z" fill="#0D7434"/>
</g>
</svg>
