<svg width="46" height="46" viewBox="0 0 46 46" fill="none" xmlns="http://www.w3.org/2000/svg">
<rect x="0.0126648" y="0.189453" width="45.5696" height="45.5696" rx="3" fill="url(#paint0_linear_40_3059)"/>
<g clip-path="url(#clip0_40_3059)">
<path d="M22.7874 12.8484C17.1975 12.8484 12.6709 17.3851 12.6709 22.975C12.6709 28.5648 17.1975 33.1016 22.7874 33.1016C28.3874 33.1016 32.9241 28.5648 32.9241 22.975C32.9241 17.3851 28.3874 12.8484 22.7874 12.8484ZM29.8051 18.9243H26.8178C26.4937 17.6585 26.0279 16.4433 25.4203 15.3193C27.2836 15.9572 28.833 17.2535 29.8051 18.9243ZM22.7975 14.9142C23.638 16.1294 24.2962 17.4762 24.7317 18.9243H20.8633C21.2988 17.4762 21.957 16.1294 22.7975 14.9142ZM14.9595 25.0003C14.7975 24.3522 14.6962 23.6737 14.6962 22.975C14.6962 22.2762 14.7975 21.5978 14.9595 20.9497H18.3823C18.3013 21.618 18.2405 22.2864 18.2405 22.975C18.2405 23.6636 18.3013 24.3319 18.3823 25.0003H14.9595ZM15.7899 27.0256H18.7773C19.1013 28.2914 19.5671 29.5066 20.1747 30.6307C18.3114 29.9927 16.7621 28.7066 15.7899 27.0256ZM18.7773 18.9243H15.7899C16.7621 17.2433 18.3114 15.9572 20.1747 15.3193C19.5671 16.4433 19.1013 17.6585 18.7773 18.9243ZM22.7975 31.0357C21.957 29.8205 21.2988 28.4737 20.8633 27.0256H24.7317C24.2962 28.4737 23.638 29.8205 22.7975 31.0357ZM25.1671 25.0003H20.4279C20.3368 24.3319 20.2659 23.6636 20.2659 22.975C20.2659 22.2864 20.3368 21.6079 20.4279 20.9497H25.1671C25.2583 21.6079 25.3292 22.2864 25.3292 22.975C25.3292 23.6636 25.2583 24.3319 25.1671 25.0003ZM25.4203 30.6307C26.0279 29.5066 26.4937 28.2914 26.8178 27.0256H29.8051C28.833 28.6965 27.2836 29.9927 25.4203 30.6307ZM27.2127 25.0003C27.2937 24.3319 27.3545 23.6636 27.3545 22.975C27.3545 22.2864 27.2937 21.618 27.2127 20.9497H30.6355C30.7975 21.5978 30.8988 22.2762 30.8988 22.975C30.8988 23.6737 30.7975 24.3522 30.6355 25.0003H27.2127Z" fill="white"/>
</g>
<defs>
<linearGradient id="paint0_linear_40_3059" x1="22.7975" y1="0.189453" x2="22.7975" y2="45.7591" gradientUnits="userSpaceOnUse">
<stop offset="0.129" stop-color="#FFCA01"/>
<stop offset="1" stop-color="#D0A608"/>
</linearGradient>
<clipPath id="clip0_40_3059">
<rect width="24.3038" height="24.3038" fill="white" transform="translate(10.6455 10.8228)"/>
</clipPath>
</defs>
</svg>
