<svg width="69" height="80" viewBox="0 0 69 80" fill="none" xmlns="http://www.w3.org/2000/svg">
<ellipse cx="29.5919" cy="51.3284" rx="28.5919" ry="28.5919" fill="#FFECA3"/>
<path d="M12.957 38.8195H37.0144" stroke="#0D7434" stroke-width="5" stroke-linecap="round" stroke-linejoin="round"/>
<path d="M12.957 49.5415H26.7041" stroke="#0D7434" stroke-width="5" stroke-linecap="round" stroke-linejoin="round"/>
<path d="M26.7048 67.4114H9.52098C5.72336 67.4114 2.64746 64.2127 2.64746 60.2634V10.2277C2.64746 6.27843 5.72336 3.07971 9.52098 3.07971H50.7621C54.5597 3.07971 57.6356 6.27843 57.6356 10.2277V24.5236" stroke="#0D7434" stroke-width="5" stroke-linecap="round" stroke-linejoin="round"/>
<path d="M19.8306 28.0976L14.2458 23.4514C13.4313 22.7723 12.957 21.7466 12.957 20.6601V17.3756C12.957 15.4028 14.4967 13.8016 16.3938 13.8016H23.2673C25.1644 13.8016 26.7041 15.4028 26.7041 17.3756V20.6601C26.7041 21.7466 26.2298 22.7723 25.4153 23.4514L19.8306 28.0976" stroke="#0D7434" stroke-width="5" stroke-linecap="round" stroke-linejoin="round"/>
<path d="M36.9492 67.4108H41.9394C42.8501 67.4108 43.7231 67.0355 44.3692 66.3636L64.6667 45.27C66.4435 43.4258 66.4435 40.4308 64.6667 38.5866C62.8933 36.7424 60.0133 36.7424 58.24 38.5866L37.9562 59.6945C37.3135 60.3665 36.9492 61.2743 36.9492 62.2214V67.4108V67.4108Z" stroke="#0D7434" stroke-width="5" stroke-linecap="round" stroke-linejoin="round"/>
</svg>
