<svg width="25" height="24" viewBox="0 0 25 24" fill="none" xmlns="http://www.w3.org/2000/svg">
<path d="M12.3999 2C9.6429 2 7.3999 4.243 7.3999 7C7.3999 9.757 9.6429 12 12.3999 12C15.1569 12 17.3999 9.757 17.3999 7C17.3999 4.243 15.1569 2 12.3999 2ZM12.3999 10C10.7459 10 9.3999 8.654 9.3999 7C9.3999 5.346 10.7459 4 12.3999 4C14.0539 4 15.3999 5.346 15.3999 7C15.3999 8.654 14.0539 10 12.3999 10ZM21.3999 21V20C21.3999 16.141 18.2589 13 14.3999 13H10.3999C6.5399 13 3.3999 16.141 3.3999 20V21H5.3999V20C5.3999 17.243 7.6429 15 10.3999 15H14.3999C17.1569 15 19.3999 17.243 19.3999 20V21H21.3999Z" fill="#304659"/>
</svg>
