<svg width="51" height="50" viewBox="0 0 51 50" fill="none" xmlns="http://www.w3.org/2000/svg">
<path d="M12.571 25H37.571V45.8333H12.571V25Z" stroke="#0D7434" stroke-width="3" stroke-linecap="round" stroke-linejoin="round"/>
<path d="M29.2378 45.8333V37.5C29.2378 36.3949 28.7988 35.3351 28.0174 34.5537C27.236 33.7723 26.1762 33.3333 25.0711 33.3333C23.9661 33.3333 22.9062 33.7723 22.1248 34.5537C21.3434 35.3351 20.9045 36.3949 20.9045 37.5V45.8333M33.8378 19.7916C36.1399 13.25 31.6211 6.24996 25.0711 6.24996M25.0711 6.24996C18.5211 6.24996 14.0024 13.25 16.3045 19.7916M25.0711 6.24996V4.16663M16.7378 25V20.8333M33.4045 25V20.8333M14.6545 19.7916H35.4878M37.5711 25L43.2003 27.1104C45.4461 27.9541 45.9045 28.6145 45.9045 31.0125V45.8333H37.5711V25ZM4.23779 31.0125C4.23779 28.6145 4.69613 27.9541 6.94196 27.1104L12.5711 25V45.8333H4.23779V31.0125Z" stroke="#0D7434" stroke-width="3" stroke-linecap="round" stroke-linejoin="round"/>
</svg>
