<svg width="17" height="16" viewBox="0 0 17 16" fill="none" xmlns="http://www.w3.org/2000/svg">
<path d="M4.02446 3.75731C4.58161 3.20015 5.24305 2.75819 5.97101 2.45666C6.69897 2.15513 7.47919 1.99994 8.26713 1.99994C9.05506 1.99994 9.83528 2.15513 10.5632 2.45666C11.2912 2.75819 11.9526 3.20015 12.5098 3.75731C13.0669 4.31446 13.5089 4.9759 13.8104 5.70386C14.112 6.43182 14.2672 7.21204 14.2672 7.99998C14.2672 8.78791 14.112 9.56813 13.8104 10.2961C13.5089 11.024 13.0669 11.6855 12.5098 12.2426C11.3846 13.3679 9.85843 14 8.26713 14C6.67582 14 5.14968 13.3679 4.02446 12.2426C2.89923 11.1174 2.26709 9.59128 2.26709 7.99998C2.26709 6.40867 2.89923 4.88253 4.02446 3.75731V3.75731Z" stroke="#0D7434" stroke-width="1.8" stroke-linecap="round"/>
<path d="M4.26709 4L12.2671 12" stroke="#0D7434" stroke-width="1.8" stroke-linecap="round"/>
</svg>
