<svg width="15" height="21" viewBox="0 0 15 21" fill="none" xmlns="http://www.w3.org/2000/svg">
<path d="M7.40918 0.5C3.53918 0.5 0.40918 3.63 0.40918 7.5C0.40918 12.75 7.40918 20.5 7.40918 20.5C7.40918 20.5 14.4092 12.75 14.4092 7.5C14.4092 3.63 11.2792 0.5 7.40918 0.5ZM7.40918 10C6.74614 10 6.11025 9.73661 5.64141 9.26777C5.17257 8.79893 4.90918 8.16304 4.90918 7.5C4.90918 6.83696 5.17257 6.20107 5.64141 5.73223C6.11025 5.26339 6.74614 5 7.40918 5C8.07222 5 8.70811 5.26339 9.17695 5.73223C9.64579 6.20107 9.90918 6.83696 9.90918 7.5C9.90918 8.16304 9.64579 8.79893 9.17695 9.26777C8.70811 9.73661 8.07222 10 7.40918 10Z" fill="#0D7434"/>
</svg>
