<svg width="25" height="24" viewBox="0 0 25 24" fill="none" xmlns="http://www.w3.org/2000/svg">
<path d="M19.4143 12H13.4143C13.0166 12.0004 12.6353 12.1586 12.3541 12.4398C12.0729 12.721 11.9147 13.1023 11.9143 13.5V18H3.66431V10.5H2.16431V22.5H3.66431V19.5H21.6643V22.5H23.1643V15.75C23.1631 14.7558 22.7676 13.8027 22.0646 13.0997C21.3616 12.3967 20.4085 12.0012 19.4143 12ZM21.6643 18H13.4143V13.5H19.4143C20.0109 13.5006 20.5828 13.7378 21.0046 14.1597C21.4265 14.5815 21.6637 15.1534 21.6643 15.75V18Z" fill="#0D7434"/>
<path d="M7.78931 12.75C8.01181 12.75 8.22932 12.816 8.41432 12.9396C8.59933 13.0632 8.74352 13.2389 8.82867 13.4445C8.91382 13.65 8.9361 13.8762 8.89269 14.0945C8.84928 14.3127 8.74214 14.5132 8.5848 14.6705C8.42747 14.8278 8.22701 14.935 8.00879 14.9784C7.79056 15.0218 7.56436 14.9995 7.35879 14.9144C7.15322 14.8292 6.97752 14.685 6.8539 14.5C6.73029 14.315 6.66431 14.0975 6.66431 13.875C6.6647 13.5768 6.78336 13.2908 6.99425 13.0799C7.20514 12.8691 7.49106 12.7504 7.78931 12.75ZM7.78931 11.25C7.27013 11.25 6.76262 11.404 6.33094 11.6924C5.89926 11.9808 5.5628 12.3908 5.36412 12.8705C5.16544 13.3501 5.11346 13.8779 5.21475 14.3871C5.31603 14.8963 5.56604 15.364 5.93315 15.7312C6.30027 16.0983 6.768 16.3483 7.2772 16.4496C7.7864 16.5508 8.3142 16.4989 8.79385 16.3002C9.27351 16.1015 9.68348 15.7651 9.97192 15.3334C10.2604 14.9017 10.4143 14.3942 10.4143 13.875C10.4143 13.1788 10.1377 12.5111 9.64546 12.0188C9.15318 11.5266 8.4855 11.25 7.78931 11.25Z" fill="#0D7434"/>
<path d="M16.4143 4.5H13.4143V1.5H11.9143V4.5H8.91431V6H11.9143V9H13.4143V6H16.4143V4.5Z" fill="#0D7434"/>
</svg>
