<svg width="25" height="25" viewBox="0 0 25 25" fill="none" xmlns="http://www.w3.org/2000/svg">
<path d="M12.5 4.50244V2.50244H22.5V4.50244H12.5ZM12.5 8.50244V6.50244H22.5V8.50244H12.5ZM12.5 12.5024V10.5024H22.5V12.5024H12.5ZM19.45 22.5024C17.3667 22.5024 15.3083 22.0484 13.275 21.1404C11.2417 20.2324 9.39167 18.9448 7.725 17.2774C6.05833 15.6101 4.771 13.7601 3.863 11.7274C2.955 9.69478 2.50067 7.63644 2.5 5.55244C2.5 5.25244 2.6 5.00244 2.8 4.80244C3 4.60244 3.25 4.50244 3.55 4.50244H7.6C7.83333 4.50244 8.04167 4.58177 8.225 4.74044C8.40833 4.89911 8.51667 5.08644 8.55 5.30244L9.2 8.80244C9.23333 9.06911 9.225 9.29411 9.175 9.47744C9.125 9.66078 9.03333 9.81911 8.9 9.95244L6.475 12.4024C6.80833 13.0191 7.204 13.6151 7.662 14.1904C8.12 14.7658 8.62433 15.3198 9.175 15.8524C9.69167 16.3691 10.2333 16.8484 10.8 17.2904C11.3667 17.7324 11.9667 18.1364 12.6 18.5024L14.95 16.1524C15.1 16.0024 15.296 15.8901 15.538 15.8154C15.78 15.7408 16.0173 15.7198 16.25 15.7524L19.7 16.4524C19.9333 16.5191 20.125 16.6401 20.275 16.8154C20.425 16.9908 20.5 17.1864 20.5 17.4024V21.4524C20.5 21.7524 20.4 22.0024 20.2 22.2024C20 22.4024 19.75 22.5024 19.45 22.5024Z" fill="#0D7434"/>
</svg>
