<svg width="11" height="11" viewBox="0 0 11 11" fill="none" xmlns="http://www.w3.org/2000/svg">
<g clip-path="url(#clip0_49_7775)">
<path d="M4.87508 9.08573C4.87508 9.25149 4.94093 9.41047 5.05814 9.52768C5.17535 9.64489 5.33432 9.71073 5.50008 9.71073C5.66584 9.71073 5.82481 9.64489 5.94202 9.52768C6.05923 9.41047 6.12508 9.25149 6.12508 9.08573V6.3774H8.83341C8.99918 6.3774 9.15815 6.31155 9.27536 6.19434C9.39257 6.07713 9.45841 5.91816 9.45841 5.7524C9.45841 5.58664 9.39257 5.42767 9.27536 5.31046C9.15815 5.19325 8.99918 5.1274 8.83341 5.1274H6.12508V2.41907C6.12508 2.25331 6.05923 2.09434 5.94202 1.97713C5.82481 1.85992 5.66584 1.79407 5.50008 1.79407C5.33432 1.79407 5.17535 1.85992 5.05814 1.97713C4.94093 2.09434 4.87508 2.25331 4.87508 2.41907V5.1274H2.16675C2.00099 5.1274 1.84202 5.19325 1.72481 5.31046C1.6076 5.42767 1.54175 5.58664 1.54175 5.7524C1.54175 5.91816 1.6076 6.07713 1.72481 6.19434C1.84202 6.31155 2.00099 6.3774 2.16675 6.3774H4.87508V9.08573Z" fill="white"/>
</g>
<defs>
<clipPath id="clip0_49_7775">
<rect width="10" height="10" fill="white" transform="translate(0.5 0.752441)"/>
</clipPath>
</defs>
</svg>
