<svg width="38" height="38" viewBox="0 0 38 38" fill="none" xmlns="http://www.w3.org/2000/svg">
<circle cx="19.0454" cy="19.0002" r="18.6667" fill="#0D7434"/>
<path d="M26.8309 24.2615L23.6571 21.0878C24.4212 20.0705 24.8337 18.8324 24.8323 17.5602C24.8323 14.3106 22.1885 11.6667 18.9389 11.6667C15.6893 11.6667 13.0454 14.3106 13.0454 17.5602C13.0454 20.8098 15.6893 23.4536 18.9389 23.4536C20.2111 23.455 21.4492 23.0425 22.4664 22.2784L25.6402 25.4522C25.8008 25.5958 26.0104 25.6724 26.2258 25.6664C26.4412 25.6604 26.6461 25.5721 26.7985 25.4198C26.9508 25.2674 27.0391 25.0625 27.0451 24.8471C27.0511 24.6317 26.9745 24.4221 26.8309 24.2615ZM14.7293 17.5602C14.7293 16.7276 14.9762 15.9137 15.4387 15.2215C15.9013 14.5292 16.5587 13.9896 17.3279 13.671C18.0971 13.3524 18.9436 13.269 19.7601 13.4315C20.5767 13.5939 21.3268 13.9948 21.9155 14.5836C22.5042 15.1723 22.9052 15.9224 23.0676 16.7389C23.23 17.5555 23.1467 18.4019 22.828 19.1711C22.5094 19.9403 21.9699 20.5978 21.2776 21.0603C20.5853 21.5229 19.7715 21.7698 18.9389 21.7698C17.8228 21.7684 16.7529 21.3245 15.9637 20.5353C15.1746 19.7462 14.7306 18.6762 14.7293 17.5602Z" fill="#FAFAFA"/>
</svg>
