<svg width="104" height="21" viewBox="0 0 104 21" fill="none" xmlns="http://www.w3.org/2000/svg">
<path d="M14.7192 19.0221C14.2775 19.0221 13.7108 18.8805 13.0025 18.4638L10.5108 16.9888C10.2525 16.8388 9.75247 16.8388 9.50247 16.9888L7.00244 18.4638C5.52742 19.3388 4.66075 18.9888 4.26908 18.7055C3.88574 18.4221 3.28573 17.6971 3.6774 16.0304L4.26908 13.4721C4.33574 13.2054 4.20241 12.7471 4.00241 12.5471L1.93572 10.4804C0.902375 9.44702 0.98571 8.56368 1.12738 8.13034C1.26905 7.697 1.71905 6.93033 3.1524 6.68866L5.81076 6.24699C6.06076 6.20532 6.4191 5.93865 6.52743 5.71365L8.00245 2.77195C8.66912 1.43027 9.54413 1.23027 10.0025 1.23027C10.4608 1.23027 11.3358 1.43027 12.0025 2.77195L13.4692 5.70532C13.5858 5.93032 13.9442 6.19699 14.1942 6.23866L16.8525 6.68033C18.2942 6.922 18.7442 7.68867 18.8776 8.12201C19.0109 8.55535 19.0942 9.43869 18.0692 10.472L16.0025 12.5471C15.8025 12.7471 15.6775 13.1971 15.7359 13.4721L16.3275 16.0304C16.7109 17.6971 16.1192 18.4221 15.7359 18.7055C15.5275 18.8555 15.1942 19.0221 14.7192 19.0221Z" fill="#FFB127"/>
<path d="M35.7192 19.0221C35.2775 19.0221 34.7108 18.8805 34.0025 18.4638L31.5108 16.9888C31.2525 16.8388 30.7525 16.8388 30.5025 16.9888L28.0024 18.4638C26.5274 19.3388 25.6607 18.9888 25.2691 18.7055C24.8857 18.4221 24.2857 17.6971 24.6774 16.0304L25.2691 13.4721C25.3357 13.2054 25.2024 12.7471 25.0024 12.5471L22.9357 10.4804C21.9024 9.44702 21.9857 8.56368 22.1274 8.13034C22.269 7.697 22.7191 6.93033 24.1524 6.68866L26.8108 6.24699C27.0608 6.20532 27.4191 5.93865 27.5274 5.71365L29.0025 2.77195C29.6691 1.43027 30.5441 1.23027 31.0025 1.23027C31.4608 1.23027 32.3358 1.43027 33.0025 2.77195L34.4692 5.70532C34.5858 5.93032 34.9442 6.19699 35.1942 6.23866L37.8525 6.68033C39.2942 6.922 39.7442 7.68867 39.8776 8.12201C40.0109 8.55535 40.0942 9.43869 39.0692 10.472L37.0025 12.5471C36.8025 12.7471 36.6775 13.1971 36.7359 13.4721L37.3275 16.0304C37.7109 17.6971 37.1192 18.4221 36.7359 18.7055C36.5275 18.8555 36.1942 19.0221 35.7192 19.0221Z" fill="#FFB127"/>
<path d="M56.7192 19.0221C56.2775 19.0221 55.7108 18.8805 55.0025 18.4638L52.5108 16.9888C52.2525 16.8388 51.7525 16.8388 51.5025 16.9888L49.0024 18.4638C47.5274 19.3388 46.6607 18.9888 46.2691 18.7055C45.8857 18.4221 45.2857 17.6971 45.6774 16.0304L46.2691 13.4721C46.3357 13.2054 46.2024 12.7471 46.0024 12.5471L43.9357 10.4804C42.9024 9.44702 42.9857 8.56368 43.1274 8.13034C43.269 7.697 43.7191 6.93033 45.1524 6.68866L47.8108 6.24699C48.0608 6.20532 48.4191 5.93865 48.5274 5.71365L50.0025 2.77195C50.6691 1.43027 51.5441 1.23027 52.0025 1.23027C52.4608 1.23027 53.3358 1.43027 54.0025 2.77195L55.4692 5.70532C55.5858 5.93032 55.9442 6.19699 56.1942 6.23866L58.8525 6.68033C60.2942 6.922 60.7442 7.68867 60.8776 8.12201C61.0109 8.55535 61.0942 9.43869 60.0692 10.472L58.0025 12.5471C57.8025 12.7471 57.6775 13.1971 57.7359 13.4721L58.3275 16.0304C58.7109 17.6971 58.1192 18.4221 57.7359 18.7055C57.5275 18.8555 57.1942 19.0221 56.7192 19.0221Z" fill="#A6AAAC" fill-opacity="0.2"/>
<path d="M77.7192 19.0221C77.2775 19.0221 76.7108 18.8805 76.0025 18.4638L73.5108 16.9888C73.2525 16.8388 72.7525 16.8388 72.5025 16.9888L70.0024 18.4638C68.5274 19.3388 67.6607 18.9888 67.2691 18.7055C66.8857 18.4221 66.2857 17.6971 66.6774 16.0304L67.2691 13.4721C67.3357 13.2054 67.2024 12.7471 67.0024 12.5471L64.9357 10.4804C63.9024 9.44702 63.9857 8.56368 64.1274 8.13034C64.269 7.697 64.7191 6.93033 66.1524 6.68866L68.8108 6.24699C69.0608 6.20532 69.4191 5.93865 69.5274 5.71365L71.0025 2.77195C71.6691 1.43027 72.5441 1.23027 73.0025 1.23027C73.4608 1.23027 74.3358 1.43027 75.0025 2.77195L76.4692 5.70532C76.5858 5.93032 76.9442 6.19699 77.1942 6.23866L79.8525 6.68033C81.2942 6.922 81.7442 7.68867 81.8776 8.12201C82.0109 8.55535 82.0942 9.43869 81.0692 10.472L79.0025 12.5471C78.8025 12.7471 78.6775 13.1971 78.7359 13.4721L79.3275 16.0304C79.7109 17.6971 79.1192 18.4221 78.7359 18.7055C78.5275 18.8555 78.1942 19.0221 77.7192 19.0221Z" fill="#A6AAAC" fill-opacity="0.2"/>
<path d="M98.7192 19.0221C98.2775 19.0221 97.7108 18.8805 97.0025 18.4638L94.5108 16.9888C94.2525 16.8388 93.7525 16.8388 93.5025 16.9888L91.0024 18.4638C89.5274 19.3388 88.6607 18.9888 88.2691 18.7055C87.8857 18.4221 87.2857 17.6971 87.6774 16.0304L88.2691 13.4721C88.3357 13.2054 88.2024 12.7471 88.0024 12.5471L85.9357 10.4804C84.9024 9.44702 84.9857 8.56368 85.1274 8.13034C85.269 7.697 85.7191 6.93033 87.1524 6.68866L89.8108 6.24699C90.0608 6.20532 90.4191 5.93865 90.5274 5.71365L92.0025 2.77195C92.6691 1.43027 93.5441 1.23027 94.0025 1.23027C94.4608 1.23027 95.3358 1.43027 96.0025 2.77195L97.4692 5.70532C97.5858 5.93032 97.9442 6.19699 98.1942 6.23866L100.853 6.68033C102.294 6.922 102.744 7.68867 102.878 8.12201C103.011 8.55535 103.094 9.43869 102.069 10.472L100.003 12.5471C99.8025 12.7471 99.6775 13.1971 99.7359 13.4721L100.328 16.0304C100.711 17.6971 100.119 18.4221 99.7359 18.7055C99.5275 18.8555 99.1942 19.0221 98.7192 19.0221Z" fill="#A6AAAC" fill-opacity="0.2"/>
</svg>
