<svg width="104" height="21" viewBox="0 0 104 21" fill="none" xmlns="http://www.w3.org/2000/svg">
<path d="M14.7192 19.0221C14.2775 19.0221 13.7108 18.8804 13.0025 18.4638L10.5108 16.9888C10.2525 16.8387 9.75247 16.8387 9.50247 16.9888L7.00244 18.4638C5.52742 19.3388 4.66075 18.9888 4.26908 18.7054C3.88574 18.4221 3.28573 17.6971 3.6774 16.0304L4.26908 13.472C4.33574 13.2054 4.20241 12.747 4.00241 12.547L1.93572 10.4804C0.902375 9.44701 0.98571 8.56366 1.12738 8.13033C1.26905 7.69699 1.71905 6.93031 3.1524 6.68864L5.81076 6.24697C6.06076 6.20531 6.4191 5.93864 6.52743 5.71363L8.00245 2.77194C8.66912 1.43026 9.54413 1.23026 10.0025 1.23026C10.4608 1.23026 11.3358 1.43026 12.0025 2.77194L13.4692 5.7053C13.5858 5.9303 13.9442 6.19697 14.1942 6.23864L16.8525 6.68031C18.2942 6.92198 18.7442 7.68866 18.8776 8.12199C19.0109 8.55533 19.0942 9.43867 18.0692 10.472L16.0025 12.547C15.8025 12.747 15.6775 13.197 15.7359 13.472L16.3275 16.0304C16.7109 17.6971 16.1192 18.4221 15.7359 18.7054C15.5275 18.8554 15.1942 19.0221 14.7192 19.0221Z" fill="#FFB127"/>
<path d="M35.7192 19.0221C35.2775 19.0221 34.7108 18.8804 34.0025 18.4638L31.5108 16.9888C31.2525 16.8387 30.7525 16.8387 30.5025 16.9888L28.0024 18.4638C26.5274 19.3388 25.6607 18.9888 25.2691 18.7054C24.8857 18.4221 24.2857 17.6971 24.6774 16.0304L25.2691 13.472C25.3357 13.2054 25.2024 12.747 25.0024 12.547L22.9357 10.4804C21.9024 9.44701 21.9857 8.56366 22.1274 8.13033C22.269 7.69699 22.7191 6.93031 24.1524 6.68864L26.8108 6.24697C27.0608 6.20531 27.4191 5.93864 27.5274 5.71363L29.0025 2.77194C29.6691 1.43026 30.5441 1.23026 31.0025 1.23026C31.4608 1.23026 32.3358 1.43026 33.0025 2.77194L34.4692 5.7053C34.5858 5.9303 34.9442 6.19697 35.1942 6.23864L37.8525 6.68031C39.2942 6.92198 39.7442 7.68866 39.8776 8.12199C40.0109 8.55533 40.0942 9.43867 39.0692 10.472L37.0025 12.547C36.8025 12.747 36.6775 13.197 36.7359 13.472L37.3275 16.0304C37.7109 17.6971 37.1192 18.4221 36.7359 18.7054C36.5275 18.8554 36.1942 19.0221 35.7192 19.0221Z" fill="#FFB127"/>
<path d="M56.7192 19.0221C56.2775 19.0221 55.7108 18.8804 55.0025 18.4638L52.5108 16.9888C52.2525 16.8387 51.7525 16.8387 51.5025 16.9888L49.0024 18.4638C47.5274 19.3388 46.6607 18.9888 46.2691 18.7054C45.8857 18.4221 45.2857 17.6971 45.6774 16.0304L46.2691 13.472C46.3357 13.2054 46.2024 12.747 46.0024 12.547L43.9357 10.4804C42.9024 9.44701 42.9857 8.56366 43.1274 8.13033C43.269 7.69699 43.7191 6.93031 45.1524 6.68864L47.8108 6.24697C48.0608 6.20531 48.4191 5.93864 48.5274 5.71363L50.0025 2.77194C50.6691 1.43026 51.5441 1.23026 52.0025 1.23026C52.4608 1.23026 53.3358 1.43026 54.0025 2.77194L55.4692 5.7053C55.5858 5.9303 55.9442 6.19697 56.1942 6.23864L58.8525 6.68031C60.2942 6.92198 60.7442 7.68866 60.8776 8.12199C61.0109 8.55533 61.0942 9.43867 60.0692 10.472L58.0025 12.547C57.8025 12.747 57.6775 13.197 57.7359 13.472L58.3275 16.0304C58.7109 17.6971 58.1192 18.4221 57.7359 18.7054C57.5275 18.8554 57.1942 19.0221 56.7192 19.0221Z" fill="#FFB127"/>
<path d="M77.7192 19.0221C77.2775 19.0221 76.7108 18.8804 76.0025 18.4638L73.5108 16.9888C73.2525 16.8387 72.7525 16.8387 72.5025 16.9888L70.0024 18.4638C68.5274 19.3388 67.6607 18.9888 67.2691 18.7054C66.8857 18.4221 66.2857 17.6971 66.6774 16.0304L67.2691 13.472C67.3357 13.2054 67.2024 12.747 67.0024 12.547L64.9357 10.4804C63.9024 9.44701 63.9857 8.56366 64.1274 8.13033C64.269 7.69699 64.7191 6.93031 66.1524 6.68864L68.8108 6.24697C69.0608 6.20531 69.4191 5.93864 69.5274 5.71363L71.0025 2.77194C71.6691 1.43026 72.5441 1.23026 73.0025 1.23026C73.4608 1.23026 74.3358 1.43026 75.0025 2.77194L76.4692 5.7053C76.5858 5.9303 76.9442 6.19697 77.1942 6.23864L79.8525 6.68031C81.2942 6.92198 81.7442 7.68866 81.8776 8.12199C82.0109 8.55533 82.0942 9.43867 81.0692 10.472L79.0025 12.547C78.8025 12.747 78.6775 13.197 78.7359 13.472L79.3275 16.0304C79.7109 17.6971 79.1192 18.4221 78.7359 18.7054C78.5275 18.8554 78.1942 19.0221 77.7192 19.0221Z" fill="#A6AAAC" fill-opacity="0.2"/>
<path d="M98.7192 19.0221C98.2775 19.0221 97.7108 18.8804 97.0025 18.4638L94.5108 16.9888C94.2525 16.8387 93.7525 16.8387 93.5025 16.9888L91.0024 18.4638C89.5274 19.3388 88.6607 18.9888 88.2691 18.7054C87.8857 18.4221 87.2857 17.6971 87.6774 16.0304L88.2691 13.472C88.3357 13.2054 88.2024 12.747 88.0024 12.547L85.9357 10.4804C84.9024 9.44701 84.9857 8.56366 85.1274 8.13033C85.269 7.69699 85.7191 6.93031 87.1524 6.68864L89.8108 6.24697C90.0608 6.20531 90.4191 5.93864 90.5274 5.71363L92.0025 2.77194C92.6691 1.43026 93.5441 1.23026 94.0025 1.23026C94.4608 1.23026 95.3358 1.43026 96.0025 2.77194L97.4692 5.7053C97.5858 5.9303 97.9442 6.19697 98.1942 6.23864L100.853 6.68031C102.294 6.92198 102.744 7.68866 102.878 8.12199C103.011 8.55533 103.094 9.43867 102.069 10.472L100.003 12.547C99.8025 12.747 99.6775 13.197 99.7359 13.472L100.328 16.0304C100.711 17.6971 100.119 18.4221 99.7359 18.7054C99.5275 18.8554 99.1942 19.0221 98.7192 19.0221Z" fill="#A6AAAC" fill-opacity="0.2"/>
</svg>
