<svg width="25" height="24" viewBox="0 0 25 24" fill="none" xmlns="http://www.w3.org/2000/svg">
<g clip-path="url(#clip0_55_755)">
<path d="M22.7002 13.125H4.7002V4.6875C4.69933 4.36975 4.76149 4.05498 4.88309 3.76142C5.00469 3.46786 5.18331 3.20133 5.40862 2.97727L5.42737 2.95852C5.78046 2.60594 6.23379 2.37098 6.72544 2.28572C7.21708 2.20046 7.72306 2.26907 8.17424 2.48217C7.74813 3.19064 7.57102 4.02119 7.67105 4.84185C7.77109 5.66251 8.14252 6.4262 8.72634 7.01156L9.23966 7.52489L8.2948 8.4698L9.3554 9.53039L10.3003 8.58553L15.5357 3.3502L16.4805 2.40534L15.4199 1.3447L14.475 2.28956L13.9617 1.77623C13.3471 1.16336 12.5369 0.785558 11.6724 0.708671C10.8078 0.631784 9.94372 0.860685 9.23062 1.35548C8.47866 0.8806 7.58754 0.675589 6.70366 0.774129C5.81977 0.87267 4.99569 1.2689 4.36677 1.89773L4.34802 1.91648C3.98298 2.27953 3.69357 2.71137 3.49655 3.18702C3.29952 3.66266 3.19879 4.17266 3.2002 4.6875V13.125H1.7002V14.625H3.2002V16.0641C3.20016 16.185 3.21966 16.3051 3.25795 16.4198L4.65332 20.6057C4.72779 20.8298 4.87097 21.0248 5.06254 21.1629C5.25411 21.301 5.48432 21.3752 5.72048 21.375H6.32516L5.77832 23.25H7.3408L7.8877 21.375H17.6424L18.2049 23.25H19.7705L19.208 21.375H20.1797C20.4159 21.3752 20.6462 21.301 20.8378 21.1629C21.0294 21.0248 21.1726 20.8299 21.2471 20.6057L22.6424 16.4198C22.6806 16.3051 22.7002 16.185 22.7002 16.0641V14.625H24.2002V13.125H22.7002ZM9.78707 2.83687C10.2003 2.42453 10.7603 2.19295 11.344 2.19295C11.9278 2.19295 12.4878 2.42453 12.901 2.83687L13.4143 3.3502L10.3004 6.46406L9.78707 5.95083C9.37474 5.53757 9.14318 4.97763 9.14318 4.39385C9.14318 3.81007 9.37474 3.25013 9.78707 2.83687ZM21.2002 16.0031L19.9096 19.875H5.99076L4.7002 16.0031V14.625H21.2002V16.0031Z" fill="#0D7434"/>
</g>
<defs>
<clipPath id="clip0_55_755">
<rect width="24" height="24" fill="white" transform="translate(0.950195)"/>
</clipPath>
</defs>
</svg>
