<svg width="25" height="24" viewBox="0 0 25 24" fill="none" xmlns="http://www.w3.org/2000/svg">
<path d="M4.73633 6.75C4.73633 5.75544 5.13142 4.80161 5.83468 4.09835C6.53794 3.39509 7.49177 3 8.48633 3H15.9863C16.9809 3 17.9347 3.39509 18.638 4.09835C19.3412 4.80161 19.7363 5.75544 19.7363 6.75V9.075C20.5834 9.2479 21.3446 9.70814 21.8913 10.3778C22.438 11.0475 22.7365 11.8855 22.7363 12.75V20.25C22.7363 20.4489 22.6573 20.6397 22.5167 20.7803C22.376 20.921 22.1852 21 21.9863 21C21.7874 21 21.5967 20.921 21.456 20.7803C21.3153 20.6397 21.2363 20.4489 21.2363 20.25V16.5H3.23633V20.25C3.23633 20.4489 3.15731 20.6397 3.01666 20.7803C2.87601 20.921 2.68524 21 2.48633 21C2.28742 21 2.09665 20.921 1.956 20.7803C1.81535 20.6397 1.73633 20.4489 1.73633 20.25V12.75C1.73615 11.8855 2.03467 11.0475 2.58135 10.3778C3.12803 9.70814 3.8893 9.2479 4.73633 9.075V6.75ZM3.23633 15H21.2363V12.75C21.2363 12.1533 20.9993 11.581 20.5773 11.159C20.1554 10.7371 19.5831 10.5 18.9863 10.5H5.48633C4.88959 10.5 4.3173 10.7371 3.89534 11.159C3.47338 11.581 3.23633 12.1533 3.23633 12.75V15ZM18.2363 6.75C18.2363 6.15326 17.9993 5.58097 17.5773 5.15901C17.1554 4.73705 16.5831 4.5 15.9863 4.5H8.48633C7.88959 4.5 7.3173 4.73705 6.89534 5.15901C6.47338 5.58097 6.23633 6.15326 6.23633 6.75V9H7.73633V8.25C7.73633 8.05109 7.81535 7.86032 7.956 7.71967C8.09665 7.57902 8.28742 7.5 8.48633 7.5H10.7363C10.9352 7.5 11.126 7.57902 11.2667 7.71967C11.4073 7.86032 11.4863 8.05109 11.4863 8.25V9H12.9863V8.25C12.9863 8.05109 13.0653 7.86032 13.206 7.71967C13.3467 7.57902 13.5374 7.5 13.7363 7.5H15.9863C16.1852 7.5 16.376 7.57902 16.5167 7.71967C16.6573 7.86032 16.7363 8.05109 16.7363 8.25V9H18.2363V6.75Z" fill="#0D7434"/>
</svg>
