<svg width="100" height="31" viewBox="0 0 100 31" fill="none" xmlns="http://www.w3.org/2000/svg">
<g clip-path="url(#clip0_51_13391)">
<g clip-path="url(#clip1_51_13391)">
<g clip-path="url(#clip2_51_13391)">
<mask id="mask0_51_13391" style="mask-type:luminance" maskUnits="userSpaceOnUse" x="1" y="0" width="97" height="30">
<path d="M97.8765 0.875977H1.53845V29.8814H97.8765V0.875977Z" fill="white"/>
</mask>
<g mask="url(#mask0_51_13391)">
<path fill-rule="evenodd" clip-rule="evenodd" d="M61.3079 23.5603C55.7314 27.683 47.621 29.8799 40.6252 29.8799C31.2937 29.9263 22.2801 26.4918 15.3456 20.2476C14.8391 19.7745 15.2775 19.1318 15.9225 19.5045C22.6378 23.3691 30.1564 25.627 37.8898 26.1018C45.6231 26.5767 53.3614 25.2554 60.4991 22.2414C61.4429 21.871 62.2206 22.8887 61.3079 23.5603Z" fill="#05073C"/>
<path fill-rule="evenodd" clip-rule="evenodd" d="M63.6397 20.8905C62.9301 19.9778 58.909 20.4508 57.117 20.6874C56.5759 20.7555 56.4743 20.2824 56.982 19.9443C60.1932 17.6805 65.4305 18.3555 66.0397 19.0997C66.649 19.8439 65.8713 25.1158 62.8632 27.6162C62.3901 27.9878 61.9505 27.7847 62.1536 27.2782C62.8286 25.5889 64.3493 21.8366 63.6397 20.8905Z" fill="#05073C"/>
<path fill-rule="evenodd" clip-rule="evenodd" d="M57.2185 4.06045V1.86816C57.2147 1.79608 57.2261 1.72402 57.2519 1.65664C57.2777 1.58924 57.3175 1.52805 57.3685 1.47701C57.4195 1.42598 57.4808 1.38623 57.5482 1.36039C57.6156 1.33455 57.6876 1.32318 57.7597 1.32701H67.557C67.705 1.32326 67.8485 1.37791 67.9565 1.4792C68.0645 1.58048 68.1281 1.72022 68.1339 1.86816V3.72699C68.1339 4.03161 67.8639 4.43662 67.3908 5.11162L62.322 12.3439C64.2536 12.2398 66.1786 12.6466 67.9031 13.5231C68.0528 13.6088 68.178 13.7314 68.2667 13.8793C68.3553 14.0273 68.4046 14.1954 68.4097 14.3678V16.6997C68.4097 17.0378 68.0716 17.4093 67.7001 17.2062C66.101 16.3786 64.3256 15.9493 62.525 15.9552C60.7244 15.961 58.9518 16.4016 57.3581 17.2397C57.2775 17.2685 57.1911 17.2775 57.1061 17.2656C57.0213 17.2539 56.9406 17.2217 56.8709 17.172C56.8012 17.1222 56.7445 17.0563 56.7058 16.9798C56.6671 16.9035 56.6474 16.8188 56.6485 16.7331V14.4993C56.6153 13.977 56.7451 13.4573 57.0201 13.012L62.9047 4.59699H57.8012C57.6532 4.60074 57.5096 4.54609 57.4018 4.4448C57.2938 4.34352 57.23 4.20377 57.2243 4.05584L57.2185 4.06045ZM21.4966 17.6758H18.5185C18.3853 17.6625 18.2601 17.6057 18.1622 17.5142C18.0645 17.4226 17.9995 17.3014 17.9774 17.1693V1.89816C17.9831 1.75022 18.0468 1.61048 18.1548 1.5092C18.2628 1.40792 18.4063 1.35326 18.5543 1.35701H21.3235C21.4606 1.35887 21.592 1.41181 21.6922 1.5055C21.7922 1.59919 21.8538 1.72688 21.8647 1.86354V3.85738H21.9328C22.1958 3.03317 22.7143 2.31395 23.4129 1.80361C24.1116 1.29327 24.9543 1.01823 25.8195 1.01823C26.6846 1.01823 27.5275 1.29327 28.2262 1.80361C28.9247 2.31395 29.443 3.03317 29.7062 3.85738C30.0028 3.00765 30.5621 2.27444 31.3035 1.76407C32.0447 1.2537 32.9293 0.992711 33.8289 1.01893C34.4968 1.00546 35.158 1.15184 35.7578 1.44588C36.3576 1.73993 36.8783 2.17312 37.2766 2.70931C38.2228 3.99354 38.0197 5.85239 38.0197 7.50816V17.1739C38.0139 17.3218 37.9502 17.4616 37.8422 17.5629C37.7342 17.6642 37.5908 17.7189 37.4428 17.7151H34.5028C34.362 17.7066 34.2292 17.6469 34.1295 17.5472C34.0298 17.4475 33.9701 17.3147 33.9616 17.1739V9.06353C34.007 8.10544 33.9841 7.14534 33.8935 6.19047C33.8316 5.78399 33.6125 5.41808 33.2833 5.17162C32.9542 4.92516 32.5415 4.81785 32.1339 4.87277C31.746 4.88397 31.3698 5.0083 31.0516 5.23054C30.7335 5.45275 30.4871 5.76316 30.3431 6.12352C30.0983 7.08308 30.0071 8.07542 30.0731 9.06353V17.1739C30.0675 17.3218 30.0037 17.4616 29.8957 17.5629C29.7877 17.6642 29.6443 17.7189 29.4962 17.7151H26.5228C26.382 17.7066 26.2492 17.6469 26.1495 17.5472C26.0498 17.4475 25.9901 17.3147 25.9816 17.1739V9.06353C25.9816 7.37315 26.2516 4.83932 24.1562 4.83932C22.0274 4.83932 22.0943 7.27276 22.0943 9.06353V17.1739C22.0731 17.3184 21.9993 17.45 21.8871 17.5435C21.7749 17.637 21.6322 17.6858 21.4862 17.6805L21.4966 17.6758ZM76.5835 1.01432C81.0108 1.01432 83.4108 4.79893 83.4108 9.63239C83.4108 14.2962 80.7743 18.0139 76.5835 18.0139C72.2578 18.0139 69.8912 14.2293 69.8912 9.49739C69.8578 4.73201 72.2566 1.01432 76.5835 1.01432ZM76.5835 4.15739C74.3912 4.15739 74.2516 7.16545 74.2516 9.0243C74.2516 10.8831 74.2181 14.8708 76.5501 14.8708C78.8485 14.8708 78.9835 11.6597 78.9835 9.70045C79.0251 8.33472 78.8771 6.96983 78.5439 5.64471C78.4516 5.20214 78.2019 4.80802 77.8412 4.5354C77.4806 4.26278 77.0333 4.13015 76.5824 4.162L76.5835 4.15739ZM89.1212 17.6758H86.1478C86.007 17.6674 85.8742 17.6076 85.7745 17.5078C85.6748 17.4081 85.6151 17.2755 85.6066 17.1347V1.83009C85.6253 1.69018 85.6941 1.56176 85.8001 1.46863C85.9062 1.3755 86.0424 1.32395 86.1835 1.32352H88.9528C89.0785 1.32772 89.1996 1.37299 89.2973 1.45236C89.3949 1.53174 89.464 1.64087 89.4939 1.76315V4.09507H89.562C90.4066 1.99969 91.5558 1.02006 93.6178 1.02006C94.3038 0.988889 94.9861 1.13779 95.5967 1.45194C96.2075 1.76609 96.7253 2.23456 97.0989 2.81083C97.8766 4.02814 97.8766 6.08892 97.8766 7.57622V17.2085C97.8562 17.3448 97.7858 17.4687 97.6793 17.5562C97.5727 17.6435 97.4373 17.6883 97.2997 17.6816H94.3262C94.1978 17.6695 94.0764 17.6172 93.9794 17.5324C93.8822 17.4475 93.8143 17.3342 93.7851 17.2085V8.89507C93.7851 7.20584 93.9881 4.77238 91.9262 4.77238C91.5528 4.7898 91.1923 4.91353 90.8868 5.12899C90.5815 5.34443 90.344 5.64264 90.2024 5.98852C89.8409 6.91299 89.6796 7.90367 89.7293 8.89507V17.1416C89.7106 17.2901 89.6386 17.4268 89.5268 17.5263C89.415 17.6259 89.2709 17.6814 89.1212 17.6828V17.6758ZM49.4116 10.3754C49.522 11.4638 49.335 12.5616 48.8705 13.552C48.6819 13.9434 48.3904 14.276 48.0272 14.5143C47.6639 14.7526 47.2426 14.8875 46.8085 14.9043C45.6547 14.9043 44.9831 14.0251 44.9831 12.7408C44.9831 10.2024 47.247 9.73279 49.4105 9.73279L49.4116 10.3754ZM52.4197 17.6447C52.3233 17.7288 52.2031 17.7806 52.0758 17.7928C51.9486 17.8051 51.8206 17.777 51.7101 17.7128C51.0217 17.1557 50.438 16.4806 49.9862 15.7189C49.3969 16.4394 48.6461 17.0106 47.7947 17.3866C46.9433 17.7625 46.0153 17.9323 45.0858 17.8824C44.476 17.9181 43.8656 17.8216 43.2967 17.5991C42.7278 17.3766 42.2138 17.0336 41.7899 16.5936C41.3661 16.1537 41.0425 15.6273 40.8414 15.0505C40.6404 14.4736 40.5666 13.8601 40.6251 13.252C40.59 12.2126 40.8763 11.1877 41.4446 10.3168C42.013 9.44593 42.8361 8.7714 43.8016 8.38509C45.6156 7.78344 47.5028 7.43097 49.4116 7.33738V6.96585C49.5127 6.22365 49.3829 5.46834 49.0401 4.80238C48.8458 4.55045 48.5942 4.34845 48.3062 4.2132C48.0183 4.07796 47.7022 4.01333 47.3843 4.02467C46.8343 3.97667 46.2857 4.13265 45.8431 4.46286C45.4006 4.79308 45.095 5.27447 44.9843 5.81546C44.9162 6.08546 44.7535 6.3566 44.4778 6.3566L41.6047 6.05201C41.5353 6.04226 41.4686 6.01859 41.4085 5.98243C41.3485 5.94627 41.2965 5.89836 41.2554 5.84158C41.2143 5.7848 41.1851 5.72029 41.1697 5.65196C41.1541 5.58362 41.1526 5.51287 41.1651 5.44392C41.8412 1.9293 44.9843 0.881603 47.8228 0.881603C49.4539 0.81185 51.0545 1.34082 52.3228 2.36892C53.7755 3.72122 53.6405 5.54544 53.6405 7.50583V12.1362C53.6594 13.1651 54.0565 14.151 54.7562 14.9055C54.9593 15.1755 54.9928 15.5135 54.7562 15.6831C54.1089 16.1931 53.0255 17.1393 52.4197 17.6447ZM10.3781 10.3754C10.4886 11.4638 10.3016 12.5616 9.83698 13.552C9.6485 13.9434 9.35698 14.276 8.99371 14.5143C8.63045 14.7526 8.20917 14.8875 7.77508 14.9043C6.62123 14.9043 5.9497 14.0251 5.9497 12.7408C5.9497 10.2024 8.21353 9.73279 10.377 9.73279L10.3781 10.3754ZM13.3528 17.6447C13.2564 17.7288 13.1362 17.7806 13.0089 17.7928C12.8816 17.8051 12.7537 17.777 12.6431 17.7128C11.9548 17.1557 11.3711 16.4806 10.9193 15.7189C10.33 16.4394 9.57922 17.0106 8.72779 17.3866C7.87635 17.7625 6.94829 17.9323 6.01891 17.8824C5.40908 17.9181 4.79873 17.8216 4.22981 17.5991C3.66087 17.3766 3.14683 17.0336 2.723 16.5936C2.29918 16.1537 1.97561 15.6273 1.77453 15.0505C1.57346 14.4736 1.49965 13.8601 1.55815 13.252C1.52312 12.2126 1.80928 11.1877 2.37769 10.3168C2.94611 9.44593 3.76912 8.7714 4.73468 8.38509C6.54861 7.78344 8.43586 7.43097 10.3447 7.33738V6.96585C10.4457 6.22365 10.316 5.46834 9.97316 4.80238C9.77887 4.55045 9.5273 4.34845 9.23935 4.2132C8.95138 4.07796 8.63531 4.01333 8.31736 4.02467C7.76729 3.97667 7.21878 4.13265 6.77622 4.46286C6.33366 4.79308 6.028 5.27447 5.91739 5.81546C5.84931 6.08546 5.68084 6.3566 5.41084 6.3566L2.53777 6.05201C2.46838 6.04226 2.40167 6.01859 2.34165 5.98243C2.28163 5.94627 2.22953 5.89836 2.18848 5.84158C2.14742 5.7848 2.11826 5.72029 2.10273 5.65196C2.08721 5.58362 2.08565 5.51287 2.09814 5.44392C2.77429 1.9293 5.91738 0.881603 8.75584 0.881603C10.387 0.81185 11.9875 1.34082 13.2558 2.36892C14.7085 3.72122 14.5735 5.54544 14.5735 7.50583V12.1362C14.5926 13.165 14.9897 14.1508 15.6893 14.9055C15.8924 15.1755 15.9258 15.5135 15.6893 15.6831C15.0466 16.1897 13.9655 17.1358 13.3574 17.6447H13.3528Z" fill="#05073C"/>
</g>
</g>
</g>
</g>
<defs>
<clipPath id="clip0_51_13391">
<rect width="100" height="30" fill="white" transform="translate(0 0.5)"/>
</clipPath>
<clipPath id="clip1_51_13391">
<rect width="100" height="30" fill="white" transform="translate(0 0.5)"/>
</clipPath>
<clipPath id="clip2_51_13391">
<rect width="96.9231" height="30" fill="white" transform="translate(1.53845 0.5)"/>
</clipPath>
</defs>
</svg>
