<svg width="100" height="31" viewBox="0 0 100 31" fill="none" xmlns="http://www.w3.org/2000/svg">
<g clip-path="url(#clip0_51_13360)">
<g clip-path="url(#clip1_51_13360)">
<mask id="mask0_51_13360" style="mask-type:luminance" maskUnits="userSpaceOnUse" x="0" y="5" width="100" height="20">
<path d="M99.6033 5.521H0V24.9825H99.6033V5.521Z" fill="white"/>
</mask>
<g mask="url(#mask0_51_13360)">
<path fill-rule="evenodd" clip-rule="evenodd" d="M3.03356 7.3529C3.77804 6.70604 4.6432 6.21294 5.57915 5.90204C6.51511 5.59113 7.50336 5.46856 8.48693 5.54141C9.47045 5.61425 10.4299 5.88106 11.3098 6.32646C12.1897 6.77186 12.9728 7.38703 13.6139 8.13651C14.9924 9.53056 15.7976 11.3912 15.8701 13.3504C15.9427 15.3095 15.2773 17.2246 14.0057 18.7168L8.12782 24.5947C6.95241 23.8111 4.9934 22.2439 5.777 20.6758C7.34422 18.7168 9.3016 17.1513 10.8713 15.1898C12.0467 13.6226 11.2631 10.4873 8.91226 10.0955C8.38472 9.91113 7.81869 9.86527 7.26836 9.96233C6.71804 10.0594 6.20184 10.2961 5.76922 10.6499C5.33661 11.0036 5.00205 11.4625 4.79761 11.9825C4.59316 12.5026 4.52567 13.0665 4.60159 13.6201C4.60159 15.5791 6.16881 16.7545 7.34422 17.9308C6.16881 19.1062 4.60159 19.8898 4.60159 21.4554C3.42618 19.8881 1.46717 18.7127 0.682738 16.7529C-0.0336758 15.149 -0.191405 13.3511 0.234787 11.6469C0.660979 9.94275 1.64646 8.43077 3.03356 7.3529Z" fill="#05073C"/>
<path fill-rule="evenodd" clip-rule="evenodd" d="M28.1121 7.35313C28.5039 6.17772 29.6794 6.56952 30.463 6.56952V21.0638H28.1121V19.8917C27.1687 20.6523 25.9933 21.0671 24.7814 21.0671C23.5695 21.0671 22.3941 20.6523 21.4507 19.8917C20.3654 18.9008 19.7154 17.5215 19.6421 16.0539C19.5687 14.5862 20.0779 13.1489 21.0589 12.0548C21.941 11.0947 23.1408 10.4864 24.4366 10.3423C25.7325 10.1983 27.0366 10.5282 28.108 11.2712L28.1121 7.35313ZM24.5875 12.4474C22.6285 12.8392 21.063 15.5818 22.6285 17.5417C22.9212 17.9686 23.3212 18.3112 23.788 18.5347C24.255 18.7583 24.7725 18.8551 25.2887 18.8153C25.8048 18.7757 26.3015 18.6009 26.7288 18.3085C27.156 18.0162 27.4988 17.6166 27.7228 17.1499C28.8957 15.19 26.9359 12.4466 24.5851 12.4466L24.5875 12.4474Z" fill="#05073C"/>
<path fill-rule="evenodd" clip-rule="evenodd" d="M32.4221 10.4873H34.7729V11.2709C35.5565 10.0955 37.1237 10.0955 38.6917 10.4873C38.2999 11.2709 37.9081 11.6627 37.9081 12.4463C36.3409 12.0545 34.7737 12.8381 34.7737 14.0135V19.8913C34.3811 21.0709 33.2057 21.0709 32.4221 21.0709V10.4873Z" fill="#05073C"/>
<path fill-rule="evenodd" clip-rule="evenodd" d="M42.2179 10.4881C46.1367 8.92089 50.0548 12.8389 49.2671 16.7578C48.4793 20.6767 42.9974 22.6357 40.2507 19.8922C37.1162 17.1496 38.2916 11.2717 42.2097 10.4881H42.2179ZM43.3933 12.4471C42.7353 12.6227 42.1353 12.9687 41.6537 13.4502C41.1721 13.9317 40.8262 14.5317 40.6507 15.1898C40.5703 15.6368 40.5924 16.0963 40.7155 16.5335C40.8386 16.9708 41.0594 17.3744 41.3613 17.7138C41.6631 18.0532 42.0382 18.3197 42.458 18.493C42.878 18.6663 43.3316 18.742 43.7851 18.7144C45.3523 18.7144 46.9195 17.539 46.9195 15.9717C46.9195 14.0144 44.9613 12.0553 43.3949 12.4471H43.3933Z" fill="#05073C"/>
<path fill-rule="evenodd" clip-rule="evenodd" d="M50.8393 10.4873H53.1901V11.2709C54.2616 10.528 55.5657 10.1981 56.8615 10.3421C58.1573 10.4862 59.3572 11.0945 60.2393 12.0546C60.7237 12.5581 61.0997 13.1556 61.3441 13.8102C61.5884 14.4647 61.696 15.1624 61.66 15.8602C61.624 16.5579 61.4453 17.2409 61.135 17.8669C60.8247 18.4929 60.3893 19.0486 59.8557 19.4997C58.2884 21.4587 55.1532 21.4587 53.1942 20.2833V23.8079C52.8024 24.9833 51.627 24.9833 50.8434 24.9833V10.4873H50.8393ZM55.9335 12.4464C53.5827 12.8382 52.4089 15.5808 53.5827 17.1488C54.7581 19.1079 57.8934 19.1079 58.677 17.1488C60.2434 15.189 58.2843 12.4464 55.9335 12.4464Z" fill="#05073C"/>
<path fill-rule="evenodd" clip-rule="evenodd" d="M65.7293 10.8799C66.7211 10.3238 67.8648 10.0998 68.993 10.2408C70.1212 10.3818 71.1747 10.8804 71.999 11.6635C71.6072 12.0553 71.2154 12.8389 70.4318 13.2307C70.0666 12.9348 69.6375 12.7278 69.1785 12.6262C68.7196 12.5245 68.2433 12.531 67.7872 12.6449C67.3312 12.7589 66.9079 12.9774 66.5507 13.283C66.1936 13.5887 65.9124 13.9732 65.7293 14.4061C65.559 14.8701 65.498 15.3671 65.551 15.8585C65.604 16.35 65.7696 16.8225 66.0349 17.2395C66.3003 17.6565 66.6581 18.0068 67.0808 18.2629C67.5034 18.5191 67.9795 18.6745 68.472 18.7168C69.2556 18.7168 70.0392 18.325 70.8228 18.325C71.5227 18.6332 72.0818 19.1923 72.39 19.8922C69.6474 22.243 64.9449 21.4594 63.7695 17.9332C62.2023 15.5815 63.3777 12.4455 65.7293 10.8799Z" fill="#05073C"/>
<path fill-rule="evenodd" clip-rule="evenodd" d="M72.3909 17.5408C71.2171 14.0145 73.9581 10.0957 77.4852 10.0957C78.8959 10.1573 80.2444 10.6941 81.3115 11.6189C82.3787 12.5438 83.1016 13.8023 83.3631 15.1899V21.0678C82.1877 21.0678 81.404 21.0678 80.6204 20.2842C77.8778 22.2432 73.5712 20.676 72.3917 17.5416L72.3909 17.5408ZM77.4852 12.4465C76.9455 12.548 76.438 12.7772 76.0049 13.1148C75.5719 13.4524 75.2259 13.8887 74.9958 14.3873C74.7657 14.8859 74.6583 15.4323 74.6824 15.9808C74.7065 16.5294 74.8615 17.0643 75.1343 17.5408C76.7016 19.4998 79.8368 19.108 80.6204 17.1489C80.8211 16.6323 80.8944 16.0749 80.8343 15.5238C80.7741 14.9728 80.5821 14.4444 80.2746 13.9831C79.9671 13.5219 79.5531 13.1415 79.0676 12.8741C78.582 12.6066 78.0393 12.46 77.4852 12.4465Z" fill="#05073C"/>
<path fill-rule="evenodd" clip-rule="evenodd" d="M84.9303 10.4885H87.2812V11.2721C88.4566 9.70492 91.2 10.0967 92.7672 11.6639C94.7262 9.31311 98.6451 10.0967 99.4287 12.8393C99.8205 15.1902 99.4287 17.9336 99.4287 20.2844C99.4287 21.068 98.2533 21.068 97.0779 21.068C97.0779 18.7172 97.4697 16.3656 97.0779 14.0189C97.0008 13.6075 96.7828 13.2358 96.4615 12.9684C96.1393 12.701 95.7344 12.5546 95.3156 12.5546C94.8967 12.5546 94.4918 12.701 94.1697 12.9684C93.8484 13.2358 93.6303 13.6075 93.5533 14.0189V21.068H91.2025C91.2672 18.5799 91.1361 16.0905 90.8107 13.623C90.4189 12.0557 87.6762 12.4475 87.6762 14.0148C87.3508 16.3496 87.2197 18.7074 87.2844 21.064H84.9303V10.4885Z" fill="#05073C"/>
</g>
</g>
</g>
<defs>
<clipPath id="clip0_51_13360">
<rect width="100" height="30" fill="white" transform="translate(0 0.5)"/>
</clipPath>
<clipPath id="clip1_51_13360">
<rect width="100" height="20.4918" fill="white" transform="translate(0 5.25391)"/>
</clipPath>
</defs>
</svg>
