<svg width="100" height="31" viewBox="0 0 100 31" fill="none" xmlns="http://www.w3.org/2000/svg">
<g clip-path="url(#clip0_51_13375)">
<g clip-path="url(#clip1_51_13375)">
<g clip-path="url(#clip2_51_13375)">
<mask id="mask0_51_13375" style="mask-type:luminance" maskUnits="userSpaceOnUse" x="2" y="0" width="96" height="30">
<path d="M97.1092 0.875977H2.69231V29.5433H97.1092V0.875977Z" fill="white"/>
</mask>
<g mask="url(#mask0_51_13375)">
<path d="M2.69231 21.1491V1.29598H6.17923V21.1491H2.69231ZM15.1065 6.74674C14.1199 6.72452 13.1387 6.89994 12.2209 7.26269C11.3031 7.62544 10.4671 8.16819 9.76228 8.85896C9.05742 9.54973 8.49791 10.3746 8.1167 11.2849C7.7355 12.1952 7.54031 13.1725 7.54261 14.1595C7.54492 15.1464 7.74469 16.1229 8.13015 17.0313C8.51562 17.9399 9.07898 18.7621 9.78706 19.4496C10.4951 20.137 11.3336 20.6759 12.2532 21.0343C13.1727 21.3928 14.1546 21.5637 15.1412 21.5368C16.12 21.5465 17.091 21.3617 17.9981 20.9934C18.905 20.625 19.7298 20.0801 20.4246 19.3906C21.1193 18.7011 21.6704 17.8805 22.0457 16.9763C22.421 16.0721 22.613 15.1026 22.6107 14.1236C22.6084 13.1447 22.4119 12.1761 22.0324 11.2737C21.6529 10.3713 21.098 9.55325 20.3999 8.86696C19.702 8.18065 18.8745 7.63974 17.9659 7.27558C17.0572 6.91144 16.0853 6.73244 15.1065 6.74674ZM15.0662 10.1067C15.9899 10.1038 16.8861 10.4211 17.6022 11.0047C18.3183 11.5882 18.81 12.4019 18.9936 13.3072C19.1773 14.2125 19.0415 15.1535 18.6095 15.9699C18.1774 16.7863 17.4756 17.4278 16.6238 17.785C15.772 18.1424 14.8226 18.1934 13.9374 17.9294C13.0522 17.6655 12.2858 17.1029 11.7687 16.3374C11.2516 15.572 11.0158 14.651 11.1014 13.7312C11.1869 12.8115 11.5886 11.9498 12.2381 11.2929C12.9875 10.5401 14.0039 10.1138 15.0662 10.1067ZM31.4092 6.74674C30.4226 6.72452 29.4415 6.89994 28.5236 7.26269C27.6058 7.62544 26.7698 8.16819 26.065 8.85896C25.3601 9.54973 24.8006 10.3746 24.4193 11.2849C24.0382 12.1952 23.843 13.1725 23.8453 14.1595C23.8476 15.1464 24.0473 16.1229 24.4328 17.0313C24.8183 17.9399 25.3817 18.7621 26.0898 19.4496C26.7979 20.137 27.6364 20.6759 28.5559 21.0343C29.4754 21.3928 30.4573 21.5637 31.4438 21.5368C32.4292 21.5608 33.4092 21.3856 34.3252 21.0218C35.2413 20.658 36.0743 20.1129 36.7747 19.4195C37.475 18.7259 38.0282 17.8981 38.4008 16.9856C38.7735 16.0732 38.9583 15.095 38.9438 14.1095C39.0417 12.7498 38.6373 11.4016 37.8073 10.3202L38.7742 9.98905V7.15866H33.8277C33.0483 6.88857 32.2295 6.74938 31.4046 6.74674H31.4092ZM31.3688 10.1067C32.2925 10.1044 33.1885 10.4221 33.9041 11.0059C34.6198 11.5898 35.1111 12.4036 35.2943 13.3089C35.4776 14.2141 35.3414 15.155 34.9092 15.9712C34.4768 16.7874 33.775 17.4285 32.9231 17.7855C32.0713 18.1425 31.122 18.1933 30.2369 17.9291C29.3518 17.665 28.5857 17.1024 28.0687 16.337C27.5518 15.5715 27.3161 14.6506 27.4018 13.731C27.4874 12.8113 27.8891 11.9497 28.5385 11.2929C29.2885 10.5395 30.3058 10.1132 31.3688 10.1067ZM35.4073 22.116C35.4073 23.1834 34.9833 24.207 34.2285 24.9618C33.4738 25.7166 32.4501 26.1406 31.3827 26.1406C30.3153 26.1406 29.2916 25.7166 28.5368 24.9618C27.7821 24.207 27.3581 23.1834 27.3581 22.116H23.8192C23.8027 23.1107 23.9894 24.0983 24.3681 25.0183C24.7467 25.9382 25.3093 26.7712 26.0212 27.466C26.7332 28.1609 27.5795 28.7031 28.5083 29.0593C29.4372 29.4155 30.429 29.5781 31.4231 29.5375C32.4078 29.5627 33.3875 29.3886 34.3033 29.0258C35.2191 28.663 36.0522 28.119 36.7527 27.4263C37.4531 26.7337 38.0063 25.9067 38.3793 24.995C38.7523 24.0832 38.9373 23.1055 38.9231 22.1206L35.4073 22.116ZM40.3481 21.1456V7.15866H43.8362V21.1491L40.3481 21.1456ZM47.2215 21.1456V10.2925H45.3512V7.15866H47.2215V2.86289H50.7085V7.15866H52.6296V10.2925H50.7085V21.1491L47.2215 21.1456ZM44.3935 3.18366C44.3935 3.64009 44.2581 4.08626 44.0045 4.46575C43.751 4.84525 43.3905 5.14104 42.9689 5.31569C42.5472 5.49036 42.0832 5.53606 41.6355 5.44701C41.188 5.35797 40.7767 5.13819 40.454 4.81546C40.1313 4.49271 39.9115 4.08153 39.8224 3.63387C39.7334 3.18623 39.7791 2.72223 39.9537 2.30056C40.1284 1.87887 40.4242 1.51846 40.8037 1.26489C41.1832 1.01132 41.6293 0.875977 42.0858 0.875977C42.6978 0.875977 43.2847 1.11911 43.7175 1.55188C44.1503 1.98466 44.3935 2.57163 44.3935 3.18366ZM60.47 6.73751C59.4842 6.71751 58.5047 6.89904 57.5914 7.27095C56.6781 7.64286 55.8505 8.19733 55.1591 8.90038C54.4677 9.60345 53.9271 10.4403 53.5706 11.3596C53.214 12.2789 53.0489 13.2614 53.0854 14.2468C53.045 15.2301 53.2116 16.211 53.5745 17.1258C53.9374 18.0406 54.4885 18.8691 55.192 19.5573C55.8955 20.2456 56.7357 20.7783 57.6582 21.1211C58.5808 21.464 59.565 21.6091 60.5473 21.5471C61.7325 21.5846 62.912 21.367 64.0058 20.9092C65.0998 20.4513 66.0825 19.7639 66.8877 18.8933L64.5569 16.5591C63.5112 17.6543 62.1012 18.3298 60.5923 18.4583C59.7172 18.4927 58.8575 18.2214 58.1606 17.6911C57.4636 17.1607 56.9732 16.4043 56.7731 15.5518H67.64V14.5918C67.64 10.7598 65.4223 6.73866 60.4758 6.73866L60.47 6.73751ZM60.3546 9.80789C61.2112 9.75864 62.0557 10.0293 62.7242 10.5674C63.3925 11.1056 63.8372 11.8728 63.9719 12.7202H56.6681C56.8395 11.8764 57.3047 11.1208 57.9807 10.5876C58.6567 10.0544 59.4998 9.77809 60.3604 9.80789H60.3546ZM76.3573 21.5483C75.3845 21.5492 74.421 21.3586 73.522 20.9873C72.6228 20.6159 71.8056 20.0711 71.1171 19.3839C69.7265 17.9961 68.9441 16.1128 68.9421 14.1481C68.9402 12.1835 69.7187 10.2985 71.1065 8.90786C72.4942 7.51725 74.3777 6.73489 76.3423 6.73289C77.4845 6.72436 78.6142 6.97104 79.6489 7.45493C80.6835 7.93883 81.597 8.64771 82.3227 9.52982L79.8846 11.9529C79.449 11.4194 78.9074 10.9821 78.294 10.6687C77.6808 10.3553 77.0091 10.1726 76.3215 10.1321C75.792 10.1189 75.2652 10.2131 74.7731 10.409C74.2808 10.6049 73.8335 10.8985 73.4578 11.272C73.0822 11.6455 72.786 12.0911 72.5873 12.5822C72.3886 13.0732 72.2914 13.5995 72.3015 14.1291C72.2882 14.6598 72.3818 15.188 72.577 15.6818C72.7721 16.1758 73.0647 16.6252 73.4373 17.0037C73.8097 17.382 74.2548 17.6814 74.7455 17.8843C75.2362 18.087 75.7628 18.1888 76.2938 18.1837C76.9865 18.1477 77.664 17.9669 78.2825 17.6528C78.901 17.3388 79.4467 16.8985 79.8846 16.3606L82.3423 18.7837C81.6146 19.6629 80.6992 20.368 79.6633 20.8472C78.6274 21.3264 77.4974 21.5676 76.3561 21.5529L76.3573 21.5483ZM83.6127 21.1595V1.24521H87.0996V8.56174C87.6242 7.95869 88.2777 7.48131 89.0117 7.16495C89.7456 6.84858 90.5414 6.70131 91.34 6.73405C94.9919 6.73405 97.1092 9.44905 97.1092 12.921V21.1595H93.6154V13.4529C93.6678 13.0274 93.6266 12.5956 93.4948 12.1877C93.3629 11.7798 93.1436 11.4056 92.852 11.0913C92.5604 10.777 92.2038 10.5301 91.8068 10.3681C91.4099 10.206 90.9824 10.1325 90.5542 10.1529C90.0885 10.1159 89.6204 10.1807 89.1823 10.3428C88.7442 10.5049 88.3466 10.7605 88.0172 11.0918C87.6878 11.423 87.4345 11.822 87.2749 12.261C87.1152 12.7 87.053 13.1686 87.0927 13.6341V21.1652H83.6127V21.1595Z" fill="#05073C"/>
</g>
</g>
</g>
</g>
<defs>
<clipPath id="clip0_51_13375">
<rect width="100" height="30" fill="white" transform="translate(0 0.5)"/>
</clipPath>
<clipPath id="clip1_51_13375">
<rect width="100" height="30" fill="white" transform="translate(0 0.5)"/>
</clipPath>
<clipPath id="clip2_51_13375">
<rect width="94.6154" height="30" fill="white" transform="translate(2.69231 0.5)"/>
</clipPath>
</defs>
</svg>
