<svg width="35" height="33" viewBox="0 0 35 33" fill="none" xmlns="http://www.w3.org/2000/svg">
<path d="M31.875 7.5H31.25V6.25C31.25 2.80375 28.4463 0 25 0H10C6.55375 0 3.75 2.80375 3.75 6.25V7.5H3.125C1.40125 7.5 0 8.9025 0 10.625V13.75C0 14.44 0.55875 15 1.25 15C1.94125 15 2.5 14.44 2.5 13.75V10.625C2.5 10.28 2.78125 10 3.125 10H3.75V22.5C3.75 24.5338 4.74125 26.3263 6.25 27.4675V30C6.25 31.3787 7.37125 32.5 8.75 32.5H11.25C12.6287 32.5 13.75 31.3787 13.75 30V28.75H21.25V30C21.25 31.3787 22.3713 32.5 23.75 32.5H26.25C27.6287 32.5 28.75 31.3787 28.75 30V27.4675C30.2588 26.325 31.25 24.5325 31.25 22.5V10H31.875C32.2188 10 32.5 10.28 32.5 10.625V13.75C32.5 14.44 33.0588 15 33.75 15C34.4412 15 35 14.44 35 13.75V10.625C35 8.9025 33.5988 7.5 31.875 7.5ZM6.25 7.5H28.75V16.7062C27.6187 17.2188 26.3813 17.5 25.1388 17.5H9.8612C8.62 17.5 7.38125 17.2188 6.25 16.7062V7.5ZM10 2.5H25C26.6275 2.5 28.0025 3.54875 28.52 5H6.48C6.9975 3.54875 8.3725 2.5 10 2.5ZM11.25 30H8.75V28.6238C9.1538 28.7063 9.5725 28.75 10 28.75H11.25V30ZM26.25 30H23.75V28.75H25C25.4275 28.75 25.8463 28.7063 26.25 28.6238V30ZM25 26.25H10C7.9325 26.25 6.25 24.5675 6.25 22.5V19.3925C7.4125 19.785 8.6362 20 9.8612 20H25.14C26.365 20 27.5887 19.785 28.7512 19.3925V22.5C28.7512 24.5675 27.0675 26.25 25 26.25Z" fill="#0D7434"/>
</svg>
