<svg width="25" height="22" viewBox="0 0 25 22" fill="none" xmlns="http://www.w3.org/2000/svg">
<g clip-path="url(#clip0_56_705)">
<path d="M11.4944 6.34587L13.7556 6.94171C13.8324 6.95967 13.9011 7.00249 13.9511 7.06352C14.001 7.12455 14.0294 7.20038 14.0319 7.27921C14.0319 7.47087 13.8614 7.62921 13.6519 7.62921H12.1685C12.0087 7.62875 11.8504 7.59763 11.7023 7.53754C11.4839 7.44587 11.2323 7.46671 11.0648 7.62087L10.2731 8.35004C10.2365 8.38209 10.2049 8.41945 10.1794 8.46087C10.1467 8.51449 10.1249 8.57404 10.1154 8.63609C10.1058 8.69815 10.1086 8.76149 10.1236 8.82245C10.1387 8.88342 10.1656 8.9408 10.2029 8.99131C10.2402 9.04181 10.2872 9.08443 10.341 9.11671C10.7795 9.37982 11.2703 9.5434 11.7789 9.59587V10.3334C11.7789 10.7 12.1052 11 12.5027 11H13.2264C13.6244 11 13.9506 10.7 13.9506 10.3334V9.60004C15.3227 9.45004 16.3606 8.30837 16.1798 6.97504C16.0485 6.01671 15.2439 5.25421 14.2398 4.98754L11.9785 4.39171C11.9017 4.37375 11.833 4.33093 11.7831 4.2699C11.7331 4.20886 11.7047 4.13304 11.7023 4.05421C11.7023 3.86254 11.8727 3.70421 12.0823 3.70421H13.5656C13.726 3.70446 13.8849 3.73558 14.0335 3.79587C14.2514 3.88754 14.5035 3.86671 14.671 3.71254L15.4627 2.98337C15.4981 2.95201 15.5286 2.91549 15.5531 2.87504C15.5861 2.82145 15.6081 2.76185 15.6179 2.6997C15.6277 2.63755 15.6251 2.57407 15.6102 2.51293C15.5953 2.4518 15.5685 2.39421 15.5312 2.34351C15.494 2.29281 15.447 2.25 15.3931 2.21754C14.9545 1.95443 14.4635 1.79085 13.9548 1.73837V1.00004C13.9548 0.633374 13.6289 0.333374 13.231 0.333374H12.5073C12.1094 0.333374 11.7835 0.633374 11.7835 1.00004V1.73337C10.4131 1.88337 9.37311 3.02504 9.55395 4.35837C9.68478 5.31671 10.4919 6.07921 11.4944 6.34587ZM23.7531 14.0042C23.2614 13.5584 22.4948 13.5875 21.9781 14.0042L18.1281 17.0834C17.6555 17.4625 17.0673 17.6684 16.4614 17.6667H11.5335C11.3567 17.6667 11.1871 17.5965 11.0621 17.4714C10.9371 17.3464 10.8669 17.1769 10.8669 17C10.8669 16.8232 10.9371 16.6537 11.0621 16.5286C11.1871 16.4036 11.3567 16.3334 11.5335 16.3334H14.7956C15.4581 16.3334 16.0752 15.8792 16.181 15.225C16.1941 15.1499 16.2005 15.0738 16.2002 14.9975C16.1995 14.6444 16.0588 14.3059 15.8088 14.0563C15.5588 13.8068 15.2201 13.6667 14.8669 13.6667H8.2002C7.07587 13.667 5.9858 14.0537 5.1127 14.7621L3.1752 16.3334H0.866862C0.690051 16.3334 0.520482 16.4036 0.395457 16.5286C0.270433 16.6537 0.200195 16.8232 0.200195 17L0.200195 21C0.200195 21.1769 0.270433 21.3464 0.395457 21.4714C0.520482 21.5965 0.690051 21.6667 0.866862 21.6667H15.7323C16.338 21.6672 16.9258 21.4615 17.3989 21.0834L23.7002 16.0417C23.8518 15.9205 23.9751 15.7676 24.0614 15.5938C24.1478 15.42 24.1952 15.2294 24.2003 15.0353C24.2053 14.8413 24.168 14.6485 24.0908 14.4704C24.0137 14.2923 23.8986 14.1332 23.7535 14.0042H23.7531Z" fill="#304659"/>
</g>
<defs>
<clipPath id="clip0_56_705">
<rect width="24" height="21.3333" fill="white" transform="translate(0.200195 0.333374)"/>
</clipPath>
</defs>
</svg>
