<svg width="40" height="35" viewBox="0 0 40 35" fill="none" xmlns="http://www.w3.org/2000/svg">
<path d="M38.3337 31.8233H34.2187V26.75C35.2739 26.481 36.2098 25.8689 36.8793 25.01C37.5488 24.151 37.9138 23.094 37.917 22.005V18.2217C37.917 16.9177 37.399 15.6671 36.4769 14.7451C35.5549 13.823 34.3043 13.305 33.0003 13.305C31.6963 13.305 30.4458 13.823 29.5237 14.7451C28.6017 15.6671 28.0837 16.9177 28.0837 18.2217V21.9983C28.0869 23.0759 28.4446 24.1224 29.1015 24.9766C29.7584 25.8308 30.6781 26.4452 31.7187 26.725V31.8233H25.0837V6.44833C25.0837 2.39165 22.8753 0.158325 18.862 0.158325H8.48533C4.46033 0.158325 2.24366 2.39165 2.24366 6.44833V31.8233H1.66699C1.33547 31.8233 1.01753 31.955 0.783109 32.1894C0.548688 32.4239 0.416992 32.7418 0.416992 33.0733C0.416992 33.4048 0.548688 33.7228 0.783109 33.9572C1.01753 34.1916 1.33547 34.3233 1.66699 34.3233H32.872C32.9053 34.3233 32.9353 34.3417 32.9687 34.3417C33.002 34.3417 33.032 34.325 33.0653 34.3233H38.3337C38.6652 34.3233 38.9831 34.1916 39.2175 33.9572C39.452 33.7228 39.5837 33.4048 39.5837 33.0733C39.5837 32.7418 39.452 32.4239 39.2175 32.1894C38.9831 31.955 38.6652 31.8233 38.3337 31.8233ZM22.5837 31.8233H15.0003V26.8233C15.0003 26.4918 14.8686 26.1739 14.6342 25.9394C14.3998 25.705 14.0818 25.5733 13.7503 25.5733C13.4188 25.5733 13.1009 25.705 12.8664 25.9394C12.632 26.1739 12.5003 26.4918 12.5003 26.8233V31.8233H4.74866V6.44833C4.74866 3.79166 5.86866 2.65832 8.49033 2.65832H18.867C21.4753 2.65832 22.5887 3.79166 22.5887 6.44833L22.5837 31.8233ZM33.0003 24.4167C32.3595 24.4162 31.7451 24.1615 31.292 23.7083C30.8389 23.2552 30.5841 22.6408 30.5837 22V18.2217C30.5837 17.5807 30.8383 16.966 31.2915 16.5128C31.7447 16.0596 32.3594 15.805 33.0003 15.805C33.6413 15.805 34.256 16.0596 34.7092 16.5128C35.1624 16.966 35.417 17.5807 35.417 18.2217V21.9983C35.417 22.6394 35.1624 23.2543 34.7093 23.7078C34.2561 24.1612 33.6414 24.4162 33.0003 24.4167ZM19.167 10.1583C19.167 10.4898 19.0353 10.8078 18.8009 11.0422C18.5665 11.2766 18.2485 11.4083 17.917 11.4083H9.66699C9.49482 11.4224 9.3216 11.4007 9.15825 11.3445C8.99491 11.2882 8.84499 11.1988 8.71795 11.0817C8.59092 10.9647 8.48953 10.8225 8.42017 10.6643C8.35082 10.5061 8.31502 10.3352 8.31502 10.1625C8.31502 9.9897 8.35082 9.8189 8.42017 9.6607C8.48953 9.50239 8.59092 9.3603 8.71795 9.2433C8.84499 9.1262 8.99491 9.0367 9.15825 8.9805C9.3216 8.9243 9.49482 8.9026 9.66699 8.9167H17.917C18.2471 8.9167 18.5638 9.0472 18.7979 9.2798C19.0321 9.5124 19.1648 9.8283 19.167 10.1583ZM19.167 16.4067C19.167 16.7382 19.0353 17.0561 18.8009 17.2905C18.5665 17.525 18.2485 17.6567 17.917 17.6567H9.66699C9.33547 17.6567 9.01753 17.525 8.78311 17.2905C8.54869 17.0561 8.41699 16.7382 8.41699 16.4067C8.41699 16.0751 8.54869 15.7572 8.78311 15.5228C9.01753 15.2884 9.33547 15.1567 9.66699 15.1567H17.917C18.2485 15.1567 18.5665 15.2884 18.8009 15.5228C19.0353 15.7572 19.167 16.0751 19.167 16.4067Z" fill="#0D7434"/>
</svg>
