<svg width="14" height="10" viewBox="0 0 14 10" fill="none" xmlns="http://www.w3.org/2000/svg">
<path d="M13.4632 5.44955L9.22923 9.82455C9.11515 9.9384 8.96237 10.0014 8.80378 9.99998C8.64519 9.99855 8.49348 9.93282 8.38134 9.81694C8.2692 9.70106 8.20559 9.5443 8.20421 9.38043C8.20283 9.21656 8.2638 9.05868 8.37397 8.94081L11.5754 5.63268H0.938587C0.778172 5.63268 0.624327 5.56683 0.510896 5.44962C0.397465 5.33241 0.33374 5.17344 0.33374 5.00768C0.33374 4.84192 0.397465 4.68295 0.510896 4.56574C0.624327 4.44853 0.778172 4.38268 0.938587 4.38268H11.5754L8.37397 1.07456C8.3162 1.0169 8.27013 0.947935 8.23843 0.871683C8.20673 0.79543 8.19004 0.713418 8.18934 0.63043C8.18865 0.547443 8.20395 0.465144 8.23436 0.388334C8.26477 0.311524 8.30969 0.241741 8.36648 0.183059C8.42327 0.124375 8.4908 0.0779667 8.56513 0.0465412C8.63947 0.0151157 8.71911 -0.00069809 8.79942 2.28882e-05C8.87973 0.00074482 8.9591 0.0179863 9.0329 0.0507421C9.10669 0.083498 9.17343 0.131111 9.22923 0.190804L13.4632 4.56581C13.5765 4.68301 13.6402 4.84195 13.6402 5.00768C13.6402 5.17341 13.5765 5.33235 13.4632 5.44955Z" fill="white"/>
</svg>
