<svg width="24" height="25" viewBox="0 0 24 25" fill="none" xmlns="http://www.w3.org/2000/svg">
<path d="M12 1.45312C11.8266 1.45312 11.6531 1.45781 11.4797 1.46578L11.5172 2.30859C11.6766 2.30109 11.8359 2.29688 12 2.29688C17.5688 2.29688 22.0781 6.80625 22.0781 12.375C22.0781 17.9438 17.5688 22.4531 12 22.4531C7.8 22.4531 4.20234 19.8891 2.68828 16.2375L3.98344 15.8484L1.71328 14.2406L0.820312 16.7953L1.87734 16.4813C3.50063 20.475 7.425 23.2969 12 23.2969C18.0281 23.2969 22.9219 18.4031 22.9219 12.375C22.9219 6.34687 18.0281 1.45312 12 1.45312ZM10.5562 1.54875C9.93281 1.63078 9.33281 1.76438 8.74688 1.94625L9.00937 2.74734C9.54375 2.58141 10.1016 2.45906 10.6688 2.38406L10.5562 1.54875ZM7.88437 2.2575C7.30312 2.49422 6.75 2.77875 6.225 3.10687L6.67031 3.81984C7.15313 3.51797 7.66406 3.25594 8.19844 3.03844L7.88437 2.2575ZM5.45625 3.63281C4.96414 4.00165 4.50393 4.41122 4.08047 4.85719L4.69219 5.43281C5.08125 5.02172 5.50781 4.64484 5.95781 4.305L5.73281 3.99703L5.45625 3.63281ZM8.71406 4.035L8.50781 4.8525L18.6797 7.45312L18.8859 6.6375L8.71406 4.035ZM3.47203 5.55469C3.08812 6.03281 2.74359 6.54844 2.44359 7.0875L3.17719 7.5C3.45422 6.99844 3.77203 6.525 4.12687 6.07969L3.47203 5.55469ZM9.45469 5.96719C9.27187 7.18594 9.58594 8.55469 10.1203 9.67969C10.4203 10.3078 10.7859 10.8609 11.1469 11.2641C11.3438 11.4844 11.5406 11.6531 11.7188 11.775L11.4656 12.7687C11.25 12.7875 10.9969 12.8438 10.7156 12.9422C10.2047 13.1203 9.61875 13.4297 9.05625 13.8375C8.04375 14.5688 7.11563 15.6141 6.69375 16.7719L14.5453 18.7828C14.7281 17.5641 14.4141 16.1953 13.8797 15.0703C13.5797 14.4422 13.2141 13.8891 12.8531 13.4859C12.6563 13.2656 12.4594 13.0969 12.2812 12.975L12.5344 11.9813C12.7453 11.9578 13.0031 11.9062 13.2844 11.8078C13.7953 11.6297 14.3812 11.3203 14.9437 10.9125C15.9562 10.1813 16.8844 9.13594 17.3063 7.97812L9.45469 5.96719ZM2.02688 7.91719C1.77703 8.47969 1.57219 9.06094 1.4175 9.66562L2.23688 9.8625C2.37891 9.30937 2.56687 8.775 2.79703 8.25937L2.02688 7.91719ZM1.22813 10.5703C1.13016 11.1562 1.07812 11.7609 1.07812 12.375V12.4172L1.92188 12.4078V12.375C1.92188 11.8078 1.96969 11.25 2.06016 10.7062L1.22813 10.5703ZM5.32031 17.2969L5.11406 18.1125L15.2859 20.7141L15.4922 19.8984L5.32031 17.2969Z" fill="#0D7434"/>
</svg>
