<svg width="71" height="73" viewBox="0 0 71 73" fill="none" xmlns="http://www.w3.org/2000/svg">
<ellipse cx="30.1024" cy="39.8796" rx="27.0379" ry="27.0379" fill="#FFECA3"/>
<path d="M57.6035 47.1633C63.8987 42.7088 68.0002 35.6451 68.0002 27.6216" stroke="#0D7434" stroke-width="5" stroke-linecap="round" stroke-linejoin="round"/>
<path d="M57.603 47.1627C57.6064 49.7177 57.5996 53.1617 57.5996 56.778" stroke="#0D7434" stroke-width="5" stroke-linecap="round" stroke-linejoin="round"/>
<path d="M17.8083 36.5948C16.6448 33.82 15.998 30.7952 15.998 27.6216" stroke="#0D7434" stroke-width="5" stroke-linecap="round" stroke-linejoin="round"/>
<path d="M47.3976 51.5534C45.6524 51.9016 43.8486 52.0908 41.9994 52.0908C39.7016 52.0908 37.4722 51.8069 35.3467 51.2763" stroke="#0D7434" stroke-width="5" stroke-linecap="round" stroke-linejoin="round"/>
<path d="M67.9977 27.172C67.9977 13.5956 56.3042 2.7027 41.9979 2.7027C27.6915 2.7027 15.998 13.5956 15.998 27.172" stroke="#0D7434" stroke-width="5" stroke-linecap="round" stroke-linejoin="round"/>
<path d="M47.3916 51.5401L57.5965 56.7787" stroke="#0D7434" stroke-width="5" stroke-linecap="round" stroke-linejoin="round"/>
<path d="M46.0049 19.6014C49.4434 19.6014 51.7508 22.748 51.7508 25.6782" stroke="#0D7434" stroke-width="5" stroke-linecap="round" stroke-linejoin="round"/>
<path d="M37.996 19.6014C34.5575 19.6014 32.25 22.748 32.25 25.6782" stroke="#0D7434" stroke-width="5" stroke-linecap="round" stroke-linejoin="round"/>
<path d="M41.9971 21.4096C42.7446 20.5579 44.0348 19.6014 46.001 19.6014" stroke="#0D7434" stroke-width="5" stroke-linecap="round" stroke-linejoin="round"/>
<path d="M42.001 21.4096C41.2535 20.5579 39.9633 19.6014 37.9971 19.6014" stroke="#0D7434" stroke-width="5" stroke-linecap="round" stroke-linejoin="round"/>
<path d="M32.25 25.6778C32.25 31.8053 40.0727 36.4998 41.9999 36.4998C43.9272 36.4998 51.7499 31.8053 51.7499 25.6778" stroke="#0D7434" stroke-width="5" stroke-linecap="round" stroke-linejoin="round"/>
<path d="M19.5004 69.6487C28.3013 69.6487 35.4383 62.2267 35.4383 53.0744C35.4383 43.922 28.3046 36.5001 19.5004 36.5001C10.6962 36.5001 3.5625 43.922 3.5625 53.0744" stroke="#0D7434" stroke-width="5" stroke-linecap="round" stroke-linejoin="round"/>
<path d="M19.5196 69.6653C17.1212 69.6653 14.8494 69.1144 12.8084 68.1309L3 70.2973L5.05074 60.0769C4.09849 57.9477 3.5655 55.5751 3.5655 53.0741" stroke="#0D7434" stroke-width="5" stroke-linecap="round" stroke-linejoin="round"/>
</svg>
