<svg width="51" height="51" viewBox="0 0 51 51" fill="none" xmlns="http://www.w3.org/2000/svg">
<circle cx="25.2964" cy="25.2972" r="25" fill="#0D7434"/>
<path d="M30.5118 26.2006C31.9554 27.1888 32.9669 28.5275 32.9669 30.3125V33.5H37.1818V30.3125C37.1818 27.9963 33.42 26.6256 30.5118 26.2006ZM28.7521 25C31.0808 25 32.9669 23.0981 32.9669 20.75C32.9669 18.4019 31.0808 16.5 28.7521 16.5C28.2568 16.5 27.7932 16.6062 27.3506 16.755C28.2574 17.8857 28.752 19.2959 28.752 20.75C28.752 22.2041 28.2574 23.6143 27.3506 24.745C27.7932 24.8938 28.2568 25 28.7521 25ZM22.4298 25C24.7585 25 26.6446 23.0981 26.6446 20.75C26.6446 18.4019 24.7585 16.5 22.4298 16.5C20.101 16.5 18.2149 18.4019 18.2149 20.75C18.2149 23.0981 20.101 25 22.4298 25ZM22.4298 18.625C23.5888 18.625 24.5372 19.5812 24.5372 20.75C24.5372 21.9187 23.5888 22.875 22.4298 22.875C21.2707 22.875 20.3223 21.9187 20.3223 20.75C20.3223 19.5812 21.2707 18.625 22.4298 18.625ZM22.4298 26.0625C19.6163 26.0625 14 27.4862 14 30.3125V33.5H30.8595V30.3125C30.8595 27.4862 25.2432 26.0625 22.4298 26.0625ZM28.7521 31.375H16.1074V30.3231C16.3182 29.5581 19.5847 28.1875 22.4298 28.1875C25.2748 28.1875 28.5413 29.5581 28.7521 30.3125V31.375Z" fill="white"/>
</svg>
