<svg width="51" height="50" viewBox="0 0 51 50" fill="none" xmlns="http://www.w3.org/2000/svg">
<path d="M21.571 45.8333V32.1458M25.7376 22.9166H25.7585M25.7376 14.5833H25.7585M29.9043 32.1458V45.8333M31.9876 33.3333C30.1845 31.9809 27.9915 31.2499 25.7376 31.2499C23.4838 31.2499 21.2907 31.9809 19.4876 33.3333M34.071 22.9166H34.0918M34.071 14.5833H34.0918M17.4043 22.9166H17.4251M17.4043 14.5833H17.4251" stroke="#0D7434" stroke-width="4" stroke-linecap="round" stroke-linejoin="round"/>
<path d="M38.2377 4.16663H13.2377C10.9365 4.16663 9.07104 6.03211 9.07104 8.33329V41.6666C9.07104 43.9678 10.9365 45.8333 13.2377 45.8333H38.2377C40.5389 45.8333 42.4044 43.9678 42.4044 41.6666V8.33329C42.4044 6.03211 40.5389 4.16663 38.2377 4.16663Z" stroke="#0D7434" stroke-width="4" stroke-linecap="round" stroke-linejoin="round"/>
</svg>
