<svg width="25" height="24" viewBox="0 0 25 24" fill="none" xmlns="http://www.w3.org/2000/svg">
<path d="M12.1421 22C10.7754 22 9.48376 21.7373 8.26709 21.212C7.05042 20.6867 5.98809 19.97 5.08009 19.062C4.17209 18.154 3.45542 17.0917 2.93009 15.875C2.40476 14.6583 2.14209 13.3667 2.14209 12C2.14209 10.6167 2.40476 9.321 2.93009 8.113C3.45542 6.905 4.17209 5.84667 5.08009 4.938C5.98809 4.02933 7.05042 3.31267 8.26709 2.788C9.48376 2.26333 10.7754 2.00067 12.1421 2C13.5254 2 14.8214 2.26267 16.0301 2.788C17.2388 3.31333 18.2968 4.03 19.2041 4.938C20.1114 5.846 20.8281 6.90433 21.3541 8.113C21.8801 9.32167 22.1428 10.6173 22.1421 12C22.1421 13.3667 21.8794 14.6583 21.3541 15.875C20.8288 17.0917 20.1121 18.1543 19.2041 19.063C18.2961 19.9717 17.2378 20.6883 16.0291 21.213C14.8204 21.7377 13.5248 22 12.1421 22ZM12.1421 19.95C12.5754 19.35 12.9504 18.725 13.2671 18.075C13.5838 17.425 13.8421 16.7333 14.0421 16H10.2421C10.4421 16.7333 10.7004 17.425 11.0171 18.075C11.3338 18.725 11.7088 19.35 12.1421 19.95ZM9.54209 19.55C9.24209 19 8.97976 18.429 8.75509 17.837C8.53042 17.245 8.34276 16.6327 8.19209 16H5.24209C5.72542 16.8333 6.32976 17.5583 7.05509 18.175C7.78042 18.7917 8.60942 19.25 9.54209 19.55ZM14.7421 19.55C15.6754 19.25 16.5048 18.7917 17.2301 18.175C17.9554 17.5583 18.5594 16.8333 19.0421 16H16.0921C15.9421 16.6333 15.7548 17.246 15.5301 17.838C15.3054 18.43 15.0428 19.0007 14.7421 19.55ZM4.39209 14H7.79209C7.74209 13.6667 7.70476 13.3377 7.68009 13.013C7.65542 12.6883 7.64276 12.3507 7.64209 12C7.64142 11.6493 7.65409 11.312 7.68009 10.988C7.70609 10.664 7.74342 10.3347 7.79209 10H4.39209C4.30876 10.3333 4.24642 10.6627 4.20509 10.988C4.16376 11.3133 4.14276 11.6507 4.14209 12C4.14142 12.3493 4.16242 12.687 4.20509 13.013C4.24776 13.339 4.31009 13.668 4.39209 14ZM9.79209 14H14.4921C14.5421 13.6667 14.5798 13.3377 14.6051 13.013C14.6304 12.6883 14.6428 12.3507 14.6421 12C14.6414 11.6493 14.6288 11.312 14.6041 10.988C14.5794 10.664 14.5421 10.3347 14.4921 10H9.79209C9.74209 10.3333 9.70476 10.6627 9.68009 10.988C9.65542 11.3133 9.64276 11.6507 9.64209 12C9.64142 12.3493 9.65409 12.687 9.68009 13.013C9.70609 13.339 9.74342 13.668 9.79209 14ZM16.4921 14H19.8921C19.9754 13.6667 20.0381 13.3377 20.0801 13.013C20.1221 12.6883 20.1428 12.3507 20.1421 12C20.1414 11.6493 20.1208 11.312 20.0801 10.988C20.0394 10.664 19.9768 10.3347 19.8921 10H16.4921C16.5421 10.3333 16.5798 10.6627 16.6051 10.988C16.6304 11.3133 16.6428 11.6507 16.6421 12C16.6414 12.3493 16.6288 12.687 16.6041 13.013C16.5794 13.339 16.5421 13.668 16.4921 14ZM16.0921 8H19.0421C18.5588 7.16667 17.9548 6.44167 17.2301 5.825C16.5054 5.20833 15.6761 4.75 14.7421 4.45C15.0421 5 15.3048 5.571 15.5301 6.163C15.7554 6.755 15.9428 7.36733 16.0921 8ZM10.2421 8H14.0421C13.8421 7.26667 13.5838 6.575 13.2671 5.925C12.9504 5.275 12.5754 4.65 12.1421 4.05C11.7088 4.65 11.3338 5.275 11.0171 5.925C10.7004 6.575 10.4421 7.26667 10.2421 8ZM5.24209 8H8.19209C8.34209 7.36667 8.52976 6.754 8.75509 6.162C8.98042 5.57 9.24276 4.99933 9.54209 4.45C8.60876 4.75 7.77942 5.20833 7.05409 5.825C6.32876 6.44167 5.72476 7.16667 5.24209 8Z" fill="#0D7434"/>
</svg>
