<svg width="25" height="25" viewBox="0 0 25 25" fill="none" xmlns="http://www.w3.org/2000/svg">
<path d="M12.5 12.0024C11.837 12.0024 11.2011 11.739 10.7322 11.2702C10.2634 10.8014 10 10.1655 10 9.50244C10 8.8394 10.2634 8.20352 10.7322 7.73467C11.2011 7.26583 11.837 7.00244 12.5 7.00244C13.163 7.00244 13.7989 7.26583 14.2678 7.73467C14.7366 8.20352 15 8.8394 15 9.50244C15 9.83075 14.9353 10.1558 14.8097 10.4592C14.6841 10.7625 14.4999 11.0381 14.2678 11.2702C14.0356 11.5024 13.76 11.6865 13.4567 11.8121C13.1534 11.9378 12.8283 12.0024 12.5 12.0024ZM12.5 2.50244C10.6435 2.50244 8.86301 3.23994 7.55025 4.55269C6.2375 5.86545 5.5 7.64593 5.5 9.50244C5.5 14.7524 12.5 22.5024 12.5 22.5024C12.5 22.5024 19.5 14.7524 19.5 9.50244C19.5 7.64593 18.7625 5.86545 17.4497 4.55269C16.137 3.23994 14.3565 2.50244 12.5 2.50244Z" fill="#0D7434"/>
</svg>
