<svg width="15" height="16" viewBox="0 0 15 16" fill="none" xmlns="http://www.w3.org/2000/svg">
<path d="M14.25 6.75H0.75C0.551088 6.75 0.360322 6.82902 0.21967 6.96967C0.0790176 7.11032 0 7.30109 0 7.5C3.34441e-05 8.81649 0.346596 10.1098 1.00486 11.2499C1.66312 12.39 2.60988 13.3368 3.75 13.995V15C3.75 15.1989 3.82902 15.3897 3.96967 15.5303C4.11032 15.671 4.30109 15.75 4.5 15.75H10.5C10.6989 15.75 10.8897 15.671 11.0303 15.5303C11.171 15.3897 11.25 15.1989 11.25 15V13.995C12.3901 13.3368 13.3369 12.39 13.9951 11.2499C14.6534 10.1098 15 8.81649 15 7.5C15 7.30109 14.921 7.11032 14.7803 6.96967C14.6397 6.82902 14.4489 6.75 14.25 6.75ZM5.25 6V5.1975C5.25048 4.31491 4.90597 3.4671 4.29 2.835C4.11611 2.65929 3.97884 2.45081 3.88614 2.22164C3.79345 1.99248 3.74717 1.74719 3.75 1.5V0.75H2.25V1.5C2.2456 2.38777 2.5904 3.24169 3.21 3.8775C3.55754 4.22874 3.75171 4.70339 3.75 5.1975V6H5.25ZM8.25 6V5.1975C8.25047 4.31491 7.90597 3.4671 7.29 2.835C7.11611 2.65929 6.97884 2.45081 6.88614 2.22164C6.79345 1.99248 6.74717 1.74719 6.75 1.5V0.75H5.25V1.5C5.24952 2.38259 5.59403 3.2304 6.21 3.8625C6.38389 4.03821 6.52116 4.24669 6.61386 4.47586C6.70655 4.70502 6.75283 4.95031 6.75 5.1975V6H8.25ZM11.25 6V5.1975C11.2505 4.31491 10.906 3.4671 10.29 2.835C10.1161 2.65929 9.97884 2.45081 9.88614 2.22164C9.79345 1.99248 9.74717 1.74719 9.75 1.5V0.75H8.25V1.5C8.24953 2.38259 8.59403 3.2304 9.21 3.8625C9.38389 4.03821 9.52116 4.24669 9.61386 4.47586C9.70655 4.70502 9.75283 4.95031 9.75 5.1975V6H11.25Z" fill="#FFCA01"/>
</svg>
