<svg width="25" height="25" viewBox="0 0 25 25" fill="none" xmlns="http://www.w3.org/2000/svg">
<g clip-path="url(#clip0_49_7759)">
<path d="M12.5 2.75244C18.023 2.75244 22.5 7.22944 22.5 12.7524C22.5 18.2754 18.023 22.7524 12.5 22.7524C6.977 22.7524 2.5 18.2754 2.5 12.7524C2.5 7.22944 6.977 2.75244 12.5 2.75244ZM12.5 4.75244C10.3783 4.75244 8.34344 5.5953 6.84315 7.09559C5.34285 8.59588 4.5 10.6307 4.5 12.7524C4.5 14.8742 5.34285 16.909 6.84315 18.4093C8.34344 19.9096 10.3783 20.7524 12.5 20.7524C14.6217 20.7524 16.6566 19.9096 18.1569 18.4093C19.6571 16.909 20.5 14.8742 20.5 12.7524C20.5 10.6307 19.6571 8.59588 18.1569 7.09559C16.6566 5.5953 14.6217 4.75244 12.5 4.75244ZM12.5 6.75244C12.7449 6.75247 12.9813 6.8424 13.1644 7.00516C13.3474 7.16792 13.4643 7.39219 13.493 7.63544L13.5 7.75244V12.3384L16.207 15.0454C16.3863 15.2254 16.4905 15.4669 16.4982 15.7208C16.506 15.9748 16.4168 16.2222 16.2488 16.4127C16.0807 16.6033 15.8464 16.7227 15.5935 16.7468C15.3406 16.7709 15.088 16.6979 14.887 16.5424L14.793 16.4594L11.793 13.4594C11.6376 13.3039 11.5378 13.1014 11.509 12.8834L11.5 12.7524V7.75244C11.5 7.48723 11.6054 7.23287 11.7929 7.04533C11.9804 6.8578 12.2348 6.75244 12.5 6.75244Z" fill="#0D7434"/>
</g>
<defs>
<clipPath id="clip0_49_7759">
<rect width="24" height="24" fill="white" transform="translate(0.5 0.752441)"/>
</clipPath>
</defs>
</svg>
