<svg width="15" height="22" viewBox="0 0 15 22" fill="none" xmlns="http://www.w3.org/2000/svg">
<path fill-rule="evenodd" clip-rule="evenodd" d="M2.625 2.74988C2.52554 2.74988 2.43016 2.78939 2.35983 2.85971C2.28951 2.93004 2.25 3.02542 2.25 3.12488V17.9899L6.7845 14.2564C6.98597 14.0903 7.23892 13.9995 7.5 13.9995C7.76108 13.9995 8.01403 14.0903 8.2155 14.2564L12.75 17.9914V3.12488C12.75 3.02542 12.7105 2.93004 12.6402 2.85971C12.5698 2.78939 12.4745 2.74988 12.375 2.74988H2.625ZM5.44211e-08 3.12488C5.44211e-08 1.67588 1.176 0.499878 2.625 0.499878H12.375C13.824 0.499878 15 1.67588 15 3.12488V20.3749C15.0001 20.5882 14.9395 20.7972 14.8253 20.9774C14.7111 21.1576 14.548 21.3016 14.3551 21.3926C14.1622 21.4837 13.9473 21.518 13.7356 21.4916C13.5239 21.4651 13.3241 21.3791 13.1595 21.2434L7.5 16.5829L1.8405 21.2434C1.67587 21.3791 1.47606 21.4651 1.26437 21.4916C1.05268 21.518 0.837833 21.4837 0.6449 21.3926C0.451967 21.3016 0.288898 21.1576 0.174712 20.9774C0.0605271 20.7972 -6.62891e-05 20.5882 5.44211e-08 20.3749V3.12488Z" fill="#304659"/>
</svg>
