<svg width="41" height="37" viewBox="0 0 41 37" fill="none" xmlns="http://www.w3.org/2000/svg">
<path d="M38.8337 33.595H38.417V29.845C38.4161 29.0717 38.1085 28.3304 37.5617 27.7836C37.015 27.2368 36.2736 26.9292 35.5003 26.9283H35.0837V17.7617H35.5003C36.2736 17.7608 37.015 17.4532 37.5617 16.9064C38.1085 16.3596 38.4161 15.6183 38.417 14.845V9.3067C38.3988 8.7283 38.2168 8.16692 37.8923 7.68781C37.5678 7.2087 37.114 6.83149 36.5837 6.59999L21.5837 0.599993C20.8844 0.342483 20.1163 0.342483 19.417 0.599993L4.41699 6.59999C3.88652 6.83132 3.43262 7.20849 3.10808 7.68764C2.78353 8.16678 2.60168 8.7282 2.58366 9.3067V14.845C2.58454 15.6183 2.89212 16.3596 3.43891 16.9064C3.9857 17.4532 4.72705 17.7608 5.50033 17.7617H5.91699V26.9283H5.50033C4.72705 26.9292 3.9857 27.2368 3.43891 27.7836C2.89212 28.3304 2.58454 29.0717 2.58366 29.845V33.595H2.16699C1.83547 33.595 1.51753 33.7267 1.28311 33.9611C1.04869 34.1955 0.916992 34.5135 0.916992 34.845C0.916992 35.1765 1.04869 35.4944 1.28311 35.7289C1.51753 35.9633 1.83547 36.095 2.16699 36.095H38.8337C39.1652 36.095 39.4831 35.9633 39.7175 35.7289C39.952 35.4944 40.0837 35.1765 40.0837 34.845C40.0837 34.5135 39.952 34.1955 39.7175 33.9611C39.4831 33.7267 39.1652 33.595 38.8337 33.595ZM5.50033 15.2617C5.39022 15.2604 5.28499 15.216 5.20713 15.1382C5.12927 15.0603 5.08496 14.9551 5.08366 14.845V9.3067C5.09943 9.2276 5.13066 9.1525 5.17557 9.0855C5.22048 9.0186 5.27817 8.9612 5.34533 8.9167L20.3337 2.91665C20.3885 2.90538 20.4444 2.90035 20.5003 2.90165C20.5563 2.90016 20.6122 2.90519 20.667 2.91665L35.667 8.9167C35.8009 9.0066 35.8942 9.1454 35.927 9.3033V14.845C35.9257 14.9551 35.8814 15.0603 35.8035 15.1382C35.7257 15.216 35.6204 15.2604 35.5103 15.2617H5.50033ZM32.5837 17.7617V26.9283H28.417V17.7617H32.5837ZM25.917 17.7617V26.9283H21.7503V17.7617H25.917ZM19.2503 17.7617V26.9283H15.0837V17.7617H19.2503ZM12.5837 17.7617V26.9283H8.41699V17.7617H12.5837ZM35.917 33.595H5.08366V29.845C5.08366 29.7345 5.12756 29.6285 5.2057 29.5504C5.28384 29.4722 5.38982 29.4283 5.50033 29.4283H35.5003C35.6108 29.4283 35.7168 29.4722 35.795 29.5504C35.8731 29.6285 35.917 29.7345 35.917 29.845V33.595ZM20.5003 6.09499C19.7586 6.09499 19.0336 6.31492 18.4169 6.72698C17.8003 7.13903 17.3196 7.7247 17.0358 8.4099C16.752 9.0951 16.6777 9.8491 16.8224 10.5766C16.9671 11.304 17.3242 11.9722 17.8487 12.4966C18.3731 13.0211 19.0413 13.3782 19.7687 13.5229C20.4962 13.6676 21.2502 13.5934 21.9354 13.3095C22.6206 13.0257 23.2063 12.5451 23.6183 11.9284C24.0304 11.3117 24.2503 10.5867 24.2503 9.845C24.249 8.8508 23.8535 7.89777 23.1505 7.1948C22.4475 6.49182 21.4945 6.09631 20.5003 6.09499ZM20.5003 11.095C20.2531 11.095 20.0114 11.0217 19.8059 10.8843C19.6003 10.747 19.4401 10.5517 19.3455 10.3233C19.2509 10.0949 19.2261 9.8436 19.2743 9.6011C19.3226 9.3586 19.4416 9.1359 19.6164 8.9611C19.7913 8.7863 20.014 8.6672 20.2565 8.619C20.4989 8.5708 20.7503 8.5955 20.9787 8.6901C21.2071 8.7847 21.4023 8.945 21.5397 9.1505C21.677 9.3561 21.7503 9.5978 21.7503 9.845C21.7494 10.1762 21.6175 10.4937 21.3832 10.7279C21.149 10.9621 20.8316 11.0941 20.5003 11.095Z" fill="#0D7434"/>
</svg>
