<svg width="19" height="20" viewBox="0 0 19 20" fill="none" xmlns="http://www.w3.org/2000/svg">
<path d="M5.7998 4.25C5.7998 4.51522 5.69445 4.76957 5.50691 4.95711C5.31937 5.14464 5.06502 5.25 4.7998 5.25C4.53459 5.25 4.28023 5.14464 4.0927 4.95711C3.90516 4.76957 3.7998 4.51522 3.7998 4.25C3.7998 3.98478 3.90516 3.73043 4.0927 3.54289C4.28023 3.35536 4.53459 3.25 4.7998 3.25C5.06502 3.25 5.31937 3.35536 5.50691 3.54289C5.69445 3.73043 5.7998 3.98478 5.7998 4.25Z" fill="#304659"/>
<path d="M4.7998 8.25C5.06502 8.25 5.31937 8.14464 5.50691 7.95711C5.69445 7.76957 5.7998 7.51522 5.7998 7.25C5.7998 6.98478 5.69445 6.73043 5.50691 6.54289C5.31937 6.35536 5.06502 6.25 4.7998 6.25C4.53459 6.25 4.28023 6.35536 4.0927 6.54289C3.90516 6.73043 3.7998 6.98478 3.7998 7.25C3.7998 7.51522 3.90516 7.76957 4.0927 7.95711C4.28023 8.14464 4.53459 8.25 4.7998 8.25Z" fill="#304659"/>
<path d="M5.7998 10.25C5.7998 10.5152 5.69445 10.7696 5.50691 10.9571C5.31937 11.1446 5.06502 11.25 4.7998 11.25C4.53459 11.25 4.28023 11.1446 4.0927 10.9571C3.90516 10.7696 3.7998 10.5152 3.7998 10.25C3.7998 9.98478 3.90516 9.73043 4.0927 9.54289C4.28023 9.35536 4.53459 9.25 4.7998 9.25C5.06502 9.25 5.31937 9.35536 5.50691 9.54289C5.69445 9.73043 5.7998 9.98478 5.7998 10.25Z" fill="#304659"/>
<path d="M5.7998 13.25C5.7998 13.5152 5.69445 13.7696 5.50691 13.9571C5.31937 14.1446 5.06502 14.25 4.7998 14.25C4.53459 14.25 4.28023 14.1446 4.0927 13.9571C3.90516 13.7696 3.7998 13.5152 3.7998 13.25C3.7998 12.9848 3.90516 12.7304 4.0927 12.5429C4.28023 12.3554 4.53459 12.25 4.7998 12.25C5.06502 12.25 5.31937 12.3554 5.50691 12.5429C5.69445 12.7304 5.7998 12.9848 5.7998 13.25Z" fill="#304659"/>
<path d="M4.7998 17.25C5.06502 17.25 5.31937 17.1446 5.50691 16.9571C5.69445 16.7696 5.7998 16.5152 5.7998 16.25C5.7998 15.9848 5.69445 15.7304 5.50691 15.5429C5.31937 15.3554 5.06502 15.25 4.7998 15.25C4.53459 15.25 4.28023 15.3554 4.0927 15.5429C3.90516 15.7304 3.7998 15.9848 3.7998 16.25C3.7998 16.5152 3.90516 16.7696 4.0927 16.9571C4.28023 17.1446 4.53459 17.25 4.7998 17.25Z" fill="#304659"/>
<path d="M11.7998 14.25C12.065 14.25 12.3194 14.1446 12.5069 13.9571C12.6944 13.7696 12.7998 13.5152 12.7998 13.25C12.7998 12.9848 12.6944 12.7304 12.5069 12.5429C12.3194 12.3554 12.065 12.25 11.7998 12.25C11.5346 12.25 11.2802 12.3554 11.0927 12.5429C10.9052 12.7304 10.7998 12.9848 10.7998 13.25C10.7998 13.5152 10.9052 13.7696 11.0927 13.9571C11.2802 14.1446 11.5346 14.25 11.7998 14.25Z" fill="#304659"/>
<path d="M14.7998 14.25C15.065 14.25 15.3194 14.1446 15.5069 13.9571C15.6944 13.7696 15.7998 13.5152 15.7998 13.25C15.7998 12.9848 15.6944 12.7304 15.5069 12.5429C15.3194 12.3554 15.065 12.25 14.7998 12.25C14.5346 12.25 14.2802 12.3554 14.0927 12.5429C13.9052 12.7304 13.7998 12.9848 13.7998 13.25C13.7998 13.5152 13.9052 13.7696 14.0927 13.9571C14.2802 14.1446 14.5346 14.25 14.7998 14.25Z" fill="#304659"/>
<path d="M14.7998 11.25C15.065 11.25 15.3194 11.1446 15.5069 10.9571C15.6944 10.7696 15.7998 10.5152 15.7998 10.25C15.7998 9.98478 15.6944 9.73043 15.5069 9.54289C15.3194 9.35536 15.065 9.25 14.7998 9.25C14.5346 9.25 14.2802 9.35536 14.0927 9.54289C13.9052 9.73043 13.7998 9.98478 13.7998 10.25C13.7998 10.5152 13.9052 10.7696 14.0927 10.9571C14.2802 11.1446 14.5346 11.25 14.7998 11.25Z" fill="#304659"/>
<path d="M12.7998 10.25C12.7998 10.5152 12.6944 10.7696 12.5069 10.9571C12.3194 11.1446 12.065 11.25 11.7998 11.25C11.5346 11.25 11.2802 11.1446 11.0927 10.9571C10.9052 10.7696 10.7998 10.5152 10.7998 10.25C10.7998 9.98478 10.9052 9.73043 11.0927 9.54289C11.2802 9.35536 11.5346 9.25 11.7998 9.25C12.065 9.25 12.3194 9.35536 12.5069 9.54289C12.6944 9.73043 12.7998 9.98478 12.7998 10.25Z" fill="#304659"/>
<path d="M14.7998 8.25C15.065 8.25 15.3194 8.14464 15.5069 7.95711C15.6944 7.76957 15.7998 7.51522 15.7998 7.25C15.7998 6.98478 15.6944 6.73043 15.5069 6.54289C15.3194 6.35536 15.065 6.25 14.7998 6.25C14.5346 6.25 14.2802 6.35536 14.0927 6.54289C13.9052 6.73043 13.7998 6.98478 13.7998 7.25C13.7998 7.51522 13.9052 7.76957 14.0927 7.95711C14.2802 8.14464 14.5346 8.25 14.7998 8.25Z" fill="#304659"/>
<path d="M12.7998 7.25C12.7998 7.51522 12.6944 7.76957 12.5069 7.95711C12.3194 8.14464 12.065 8.25 11.7998 8.25C11.5346 8.25 11.2802 8.14464 11.0927 7.95711C10.9052 7.76957 10.7998 7.51522 10.7998 7.25C10.7998 6.98478 10.9052 6.73043 11.0927 6.54289C11.2802 6.35536 11.5346 6.25 11.7998 6.25C12.065 6.25 12.3194 6.35536 12.5069 6.54289C12.6944 6.73043 12.7998 6.98478 12.7998 7.25Z" fill="#304659"/>
<path d="M11.7998 3.25V2.5C11.7998 1.90326 11.5628 1.33097 11.1408 0.90901C10.7188 0.487053 10.1465 0.25 9.5498 0.25H3.0498C2.45307 0.25 1.88077 0.487053 1.45881 0.90901C1.03686 1.33097 0.799805 1.90326 0.799805 2.5V19C0.799805 19.414 1.1358 19.75 1.5498 19.75H18.0498C18.2487 19.75 18.4395 19.671 18.5801 19.5303C18.7208 19.3897 18.7998 19.1989 18.7998 19V5.5C18.7998 4.90326 18.5628 4.33097 18.1408 3.90901C17.7188 3.48705 17.1465 3.25 16.5498 3.25H11.7998ZM2.2998 2.5C2.2998 2.30109 2.37882 2.11032 2.51947 1.96967C2.66013 1.82902 2.85089 1.75 3.0498 1.75H9.5498C9.74872 1.75 9.93948 1.82902 10.0801 1.96967C10.2208 2.11032 10.2998 2.30109 10.2998 2.5V3.25H10.0498C9.45307 3.25 8.88077 3.48705 8.45881 3.90901C8.03686 4.33097 7.7998 4.90326 7.7998 5.5V18.25H2.2998V2.5ZM12.2998 18.25V16.75H14.2998V18.25H12.2998ZM15.7998 16C15.7998 15.8011 15.7208 15.6103 15.5801 15.4697C15.4395 15.329 15.2487 15.25 15.0498 15.25H11.5498C11.3509 15.25 11.1601 15.329 11.0195 15.4697C10.8788 15.6103 10.7998 15.8011 10.7998 16V18.25H9.2998V5.5C9.2998 5.30109 9.37882 5.11032 9.51947 4.96967C9.66013 4.82902 9.85089 4.75 10.0498 4.75H16.5498C16.7487 4.75 16.9395 4.82902 17.0801 4.96967C17.2208 5.11032 17.2998 5.30109 17.2998 5.5V18.25H15.7998V16Z" fill="#304659"/>
</svg>
