<svg width="26" height="26" viewBox="0 0 26 26" fill="none" xmlns="http://www.w3.org/2000/svg">
<path d="M8.40006 11.0667C8.40006 11.4204 8.25959 11.7595 8.00954 12.0095C7.75949 12.2596 7.42035 12.4001 7.06673 12.4001C6.71311 12.4001 6.37397 12.2596 6.12392 12.0095C5.87387 11.7595 5.7334 11.4204 5.7334 11.0667C5.7334 10.7131 5.87387 10.374 6.12392 10.1239C6.37397 9.87387 6.71311 9.7334 7.06673 9.7334C7.42035 9.7334 7.75949 9.87387 8.00954 10.1239C8.25959 10.374 8.40006 10.7131 8.40006 11.0667Z" fill="#FFCA01"/>
<path d="M11.0667 12.4001C11.4204 12.4001 11.7595 12.2596 12.0095 12.0095C12.2596 11.7595 12.4001 11.4204 12.4001 11.0667C12.4001 10.7131 12.2596 10.374 12.0095 10.1239C11.7595 9.87387 11.4204 9.7334 11.0667 9.7334C10.7131 9.7334 10.374 9.87387 10.1239 10.1239C9.87387 10.374 9.7334 10.7131 9.7334 11.0667C9.7334 11.4204 9.87387 11.7595 10.1239 12.0095C10.374 12.2596 10.7131 12.4001 11.0667 12.4001Z" fill="#FFCA01"/>
<path d="M15.0667 12.4001C15.4204 12.4001 15.7595 12.2596 16.0095 12.0095C16.2596 11.7595 16.4001 11.4204 16.4001 11.0667C16.4001 10.7131 16.2596 10.374 16.0095 10.1239C15.7595 9.87387 15.4204 9.7334 15.0667 9.7334C14.7131 9.7334 14.374 9.87387 14.1239 10.1239C13.8739 10.374 13.7334 10.7131 13.7334 11.0667C13.7334 11.4204 13.8739 11.7595 14.1239 12.0095C14.374 12.2596 14.7131 12.4001 15.0667 12.4001Z" fill="#FFCA01"/>
<path fill-rule="evenodd" clip-rule="evenodd" d="M18.6093 3.52405C20.447 5.36163 21.5508 7.80682 21.7133 10.4005C21.8758 12.9943 21.0859 15.5581 19.492 17.6107C19.5133 17.628 19.532 17.6467 19.552 17.6667L25.2093 23.324C25.4522 23.5755 25.5866 23.9123 25.5836 24.2619C25.5805 24.6115 25.4403 24.9459 25.1931 25.1931C24.9459 25.4403 24.6115 25.5806 24.2619 25.5836C23.9123 25.5866 23.5755 25.4523 23.324 25.2094L17.6667 19.552C17.6474 19.5327 17.6287 19.5127 17.6107 19.492C15.4671 21.1547 12.7707 21.9383 10.07 21.6834C7.3692 21.4285 4.86698 20.1543 3.07235 18.12C1.27772 16.0857 0.325501 13.4441 0.409406 10.7326C0.49331 8.02116 1.60704 5.4435 3.52401 3.52405C4.51451 2.5335 5.69042 1.74775 6.98459 1.21166C8.27877 0.675578 9.66586 0.399658 11.0667 0.399658C12.4675 0.399658 13.8546 0.675578 15.1488 1.21166C16.4429 1.74775 17.6188 2.5335 18.6093 3.52405ZM5.40934 16.724C6.15219 17.467 7.03409 18.0563 8.00469 18.4584C8.9753 18.8605 10.0156 19.0675 11.0662 19.0676C12.1168 19.0676 13.1571 18.8608 14.1278 18.4588C15.0984 18.0568 15.9804 17.4676 16.7233 16.7247C17.4663 15.9819 18.0556 15.1 18.4577 14.1294C18.8598 13.1588 19.0668 12.1185 19.0669 11.0679C19.0669 10.0173 18.8601 8.97692 18.4581 8.00627C18.0561 7.03562 17.4669 6.15365 16.724 5.41071C15.2196 3.93061 13.1913 3.10492 11.0808 3.11351C8.97041 3.12211 6.94887 3.96428 5.45656 5.45659C3.96425 6.9489 3.12207 8.97044 3.11348 11.0809C3.10488 13.1913 3.93057 15.2196 5.41068 16.724H5.40934Z" fill="#0D7434"/>
</svg>
