<svg width="46" height="46" viewBox="0 0 46 46" fill="none" xmlns="http://www.w3.org/2000/svg">
<rect x="0.316437" y="0.189453" width="45.5696" height="45.5696" rx="3" fill="url(#paint0_linear_40_3081)"/>
<path d="M24.0949 17.7901L24.7038 19.2143C24.745 19.3382 24.8586 19.4104 24.9721 19.4207L26.5202 19.5652C26.8504 19.5962 26.9743 19.9987 26.7369 20.2154L25.5707 21.2371C25.4778 21.3197 25.4365 21.4435 25.4675 21.5571L25.8081 23.0742C25.8803 23.3941 25.5397 23.6418 25.2507 23.4767L23.9194 22.682C23.8162 22.6201 23.682 22.6201 23.5788 22.682L22.2475 23.4767C21.9688 23.6418 21.6179 23.3941 21.6902 23.0742L22.0308 21.5571C22.0617 21.4435 22.0204 21.3197 21.9276 21.2371L20.7613 20.2154C20.5136 19.9987 20.6478 19.5962 20.9781 19.5652L22.5261 19.4207C22.65 19.4104 22.7532 19.3382 22.8048 19.2246L23.4137 17.8004C23.5375 17.4908 23.9607 17.4908 24.0949 17.7901Z" stroke="white" stroke-miterlimit="10" stroke-linecap="round" stroke-linejoin="round"/>
<path d="M30.7695 20.8084C30.7962 16.9325 27.6758 13.7688 23.7999 13.7422C19.924 13.7155 16.7604 16.8359 16.7337 20.7118C16.707 24.5877 19.8274 27.7514 23.7033 27.778C27.5792 27.8047 30.7429 24.6843 30.7695 20.8084Z" stroke="white" stroke-miterlimit="10" stroke-linecap="round" stroke-linejoin="round"/>
<path d="M22.7945 27.7077L21.0504 32.0939L18.8418 29.5654L15.5083 29.875L17.7168 24.3433" stroke="white" stroke-miterlimit="10" stroke-linecap="round" stroke-linejoin="round"/>
<path d="M24.6934 27.7077L26.4479 32.0939L28.6462 29.5654L31.99 29.875L29.7711 24.3433" stroke="white" stroke-miterlimit="10" stroke-linecap="round" stroke-linejoin="round"/>
<defs>
<linearGradient id="paint0_linear_40_3081" x1="23.1012" y1="0.189453" x2="23.1012" y2="45.7591" gradientUnits="userSpaceOnUse">
<stop stop-color="#FFCA01"/>
<stop offset="1" stop-color="#D0A608"/>
</linearGradient>
</defs>
</svg>
