<svg width="20" height="18" viewBox="0 0 20 18" fill="none" xmlns="http://www.w3.org/2000/svg">
<path d="M16.75 0C17.1768 0 17.5994 0.0840637 17.9937 0.247391C18.388 0.410719 18.7463 0.650112 19.0481 0.951903C19.3499 1.25369 19.5893 1.61197 19.7526 2.00628C19.9159 2.40059 20 2.8232 20 3.25V14.75C20 15.1768 19.9159 15.5994 19.7526 15.9937C19.5893 16.388 19.3499 16.7463 19.0481 17.0481C18.7463 17.3499 18.388 17.5893 17.9937 17.7526C17.5994 17.9159 17.1768 18 16.75 18H3.25C2.38805 18 1.5614 17.6576 0.951903 17.0481C0.34241 16.4386 0 15.612 0 14.75V3.25C0 2.38805 0.34241 1.5614 0.951903 0.951903C1.5614 0.34241 2.38805 0 3.25 0H16.75ZM16.75 1.5H3.25C2.78587 1.5 2.34075 1.68437 2.01256 2.01256C1.68437 2.34075 1.5 2.78587 1.5 3.25V14.75C1.5 15.716 2.284 16.5 3.25 16.5H16.75C17.2141 16.5 17.6592 16.3156 17.9874 15.9874C18.3156 15.6592 18.5 15.2141 18.5 14.75V3.25C18.5 2.78587 18.3156 2.34075 17.9874 2.01256C17.6592 1.68437 17.2141 1.5 16.75 1.5ZM4.748 3.5H15.254C15.444 3.50006 15.6269 3.57224 15.7658 3.70197C15.9046 3.8317 15.9891 4.0093 16.002 4.19888C16.015 4.38846 15.9555 4.57589 15.8356 4.7233C15.7157 4.87071 15.5443 4.9671 15.356 4.993L15.254 5H4.748C4.55806 4.99969 4.37532 4.92733 4.23666 4.79752C4.098 4.66771 4.01375 4.49013 4.00093 4.30062C3.98811 4.11112 4.04767 3.92381 4.16759 3.77651C4.2875 3.62921 4.45883 3.53289 4.647 3.507L4.748 3.5H15.254H4.748Z" fill="#304659"/>
</svg>
