<svg width="25" height="24" viewBox="0 0 25 24" fill="none" xmlns="http://www.w3.org/2000/svg">
<path d="M16.6751 11.048C17.2842 10.0101 17.5472 8.80528 17.4261 7.60797C17.2471 5.82397 16.2511 4.24697 14.6231 3.16797L13.5181 4.83397C14.6371 5.57597 15.3181 6.63297 15.4361 7.80797C15.4905 8.35407 15.4225 8.90543 15.2371 9.42195C15.0517 9.93847 14.7534 10.4072 14.3641 10.794L13.1721 11.986L14.7901 12.461C19.0221 13.701 19.0711 17.957 19.0711 18H21.0711C21.0711 16.211 20.1151 12.715 16.6751 11.048Z" fill="#0D7434"/>
<path d="M9.57104 12C11.777 12 13.571 10.206 13.571 8C13.571 5.794 11.777 4 9.57104 4C7.36504 4 5.57104 5.794 5.57104 8C5.57104 10.206 7.36504 12 9.57104 12ZM9.57104 6C10.674 6 11.571 6.897 11.571 8C11.571 9.103 10.674 10 9.57104 10C8.46804 10 7.57104 9.103 7.57104 8C7.57104 6.897 8.46804 6 9.57104 6ZM11.071 13H8.07104C4.76204 13 2.07104 15.691 2.07104 19V20H4.07104V19C4.07104 16.794 5.86504 15 8.07104 15H11.071C13.277 15 15.071 16.794 15.071 19V20H17.071V19C17.071 15.691 14.38 13 11.071 13Z" fill="#0D7434"/>
</svg>
