<svg width="38" height="38" viewBox="0 0 38 38" fill="none" xmlns="http://www.w3.org/2000/svg">
<circle cx="18.7118" cy="18.9999" r="18.6667" fill="url(#paint0_linear_56_627)"/>
<path d="M16.5637 26.3335C17.0137 26.3335 17.3785 25.9687 17.3785 25.5187C17.3785 25.0687 17.0137 24.7039 16.5637 24.7039C16.1137 24.7039 15.7489 25.0687 15.7489 25.5187C15.7489 25.9687 16.1137 26.3335 16.5637 26.3335Z" fill="white" stroke="white" stroke-width="1.3" stroke-linecap="round" stroke-linejoin="round"/>
<path d="M22.2675 26.3335C22.7175 26.3335 23.0823 25.9687 23.0823 25.5187C23.0823 25.0687 22.7175 24.7039 22.2675 24.7039C21.8175 24.7039 21.4527 25.0687 21.4527 25.5187C21.4527 25.9687 21.8175 26.3335 22.2675 26.3335Z" fill="white" stroke="white" stroke-width="1.3" stroke-linecap="round" stroke-linejoin="round"/>
<path d="M10.0451 11.6667H12.5664L14.4573 22.3821H24.5424" stroke="white" stroke-width="1.3" stroke-linecap="round" stroke-linejoin="round"/>
<path d="M14.1192 19.7892L24.284 19.8605C24.3569 19.8606 24.4276 19.8354 24.484 19.7892C24.5403 19.743 24.579 19.6787 24.5933 19.6072L25.7278 13.9344C25.737 13.8886 25.7359 13.8414 25.7246 13.7962C25.7133 13.7509 25.6921 13.7087 25.6625 13.6727C25.6329 13.6366 25.5957 13.6075 25.5535 13.5876C25.5113 13.5677 25.4652 13.5573 25.4186 13.5574L13.09 13.5574" stroke="white" stroke-width="1.3" stroke-linecap="round" stroke-linejoin="round"/>
<defs>
<linearGradient id="paint0_linear_56_627" x1="18.7118" y1="0.333252" x2="18.7118" y2="37.6666" gradientUnits="userSpaceOnUse">
<stop stop-color="#FFD705"/>
<stop offset="1" stop-color="#F69C2A"/>
</linearGradient>
</defs>
</svg>
