<svg width="46" height="46" viewBox="0 0 46 46" fill="none" xmlns="http://www.w3.org/2000/svg">
<rect x="0.329163" y="0.189453" width="45.5696" height="45.5696" rx="3" fill="#0D7434"/>
<path d="M24.5245 19.6354C24.5245 19.6354 23.5045 18.7354 21.7145 19.3654C20.0645 19.9354 20.1445 22.1954 22.6445 22.7954" stroke="white" stroke-width="1.2" stroke-miterlimit="10" stroke-linecap="round" stroke-linejoin="round"/>
<path d="M20.6045 25.9156C20.6045 25.9156 21.6245 26.8156 23.4145 26.1856C25.0745 25.6056 24.9945 23.3456 22.4845 22.7456" stroke="white" stroke-width="1.2" stroke-miterlimit="10" stroke-linecap="round" stroke-linejoin="round"/>
<path d="M22.7445 19.1455V17.6755" stroke="white" stroke-width="1.2" stroke-miterlimit="10" stroke-linecap="round" stroke-linejoin="round"/>
<path d="M22.7445 27.8753V26.4053" stroke="white" stroke-width="1.2" stroke-miterlimit="10" stroke-linecap="round" stroke-linejoin="round"/>
<path d="M23 32.5776C27.9706 32.5776 32 28.5482 32 23.5776C32 18.6071 27.9706 14.5776 23 14.5776C18.0294 14.5776 14 18.6071 14 23.5776C14 28.5482 18.0294 32.5776 23 32.5776Z" stroke="white" stroke-width="1.2" stroke-miterlimit="10" stroke-linecap="round" stroke-linejoin="round"/>
</svg>
