<svg width="17" height="16" viewBox="0 0 17 16" fill="none" xmlns="http://www.w3.org/2000/svg">
<path d="M3.95599 1C3.79303 1.00003 3.63451 1.05314 3.50442 1.1513C3.37433 1.24945 3.27975 1.3873 3.23499 1.544L1.37699 8.044C1.34509 8.15569 1.33956 8.27326 1.36085 8.38744C1.38213 8.50163 1.42965 8.60931 1.49965 8.702C1.56965 8.79469 1.66023 8.86985 1.76423 8.92157C1.86824 8.97328 1.98284 9.00013 2.09899 9H3.62699L2.28199 14.379C2.25521 14.4863 2.26476 14.5995 2.30915 14.7008C2.35354 14.8021 2.43027 14.8858 2.52732 14.9388C2.62437 14.9919 2.73627 15.0112 2.8455 14.9939C2.95474 14.9766 3.05514 14.9235 3.13099 14.843L5.55899 12.273C5.27911 11.4514 5.19764 10.5753 5.32125 9.71619C5.44485 8.8571 5.77001 8.03946 6.27015 7.33011C6.77029 6.62077 7.43121 6.03986 8.19887 5.63488C8.96653 5.22989 9.81914 5.01234 10.687 5H8.48899L9.60899 2.012C9.65129 1.89854 9.66549 1.77653 9.65038 1.65639C9.63526 1.53625 9.59129 1.42156 9.52221 1.32211C9.45312 1.22267 9.36099 1.14142 9.25368 1.08533C9.14637 1.02924 9.02708 0.999959 8.90599 1H3.95699H3.95599ZM10.767 15C11.3579 15 11.9431 14.8836 12.4891 14.6575C13.035 14.4313 13.5311 14.0998 13.949 13.682C14.3668 13.2641 14.6983 12.768 14.9244 12.2221C15.1506 11.6761 15.267 11.0909 15.267 10.5C15.267 9.90905 15.1506 9.32389 14.9244 8.77792C14.6983 8.23196 14.3668 7.73588 13.949 7.31802C13.5311 6.90016 13.035 6.56869 12.4891 6.34254C11.9431 6.1164 11.3579 6 10.767 6C9.57352 6 8.42892 6.47411 7.58501 7.31802C6.7411 8.16193 6.26699 9.30653 6.26699 10.5C6.26699 11.6935 6.7411 12.8381 7.58501 13.682C8.42892 14.5259 9.57352 15 10.767 15ZM13.121 9.354L10.121 12.354C10.0272 12.4477 9.90007 12.5004 9.76749 12.5004C9.63491 12.5004 9.50775 12.4477 9.41399 12.354L8.41399 11.354C8.3675 11.3076 8.33061 11.2525 8.30543 11.1918C8.28024 11.1311 8.26726 11.0661 8.26721 11.0004C8.26712 10.8677 8.31974 10.7404 8.41349 10.6465C8.50724 10.5526 8.63446 10.4998 8.76714 10.4997C8.89982 10.4996 9.0271 10.5522 9.12099 10.646L9.76699 11.293L12.413 8.646C12.5069 8.55211 12.6342 8.49937 12.767 8.49937C12.8998 8.49937 13.0271 8.55211 13.121 8.646C13.2149 8.73989 13.2676 8.86722 13.2676 9C13.2676 9.13278 13.2149 9.26011 13.121 9.354Z" fill="#0D7434"/>
</svg>
