<svg width="50" height="50" viewBox="0 0 50 50" fill="none" xmlns="http://www.w3.org/2000/svg">
<circle cx="25" cy="25" r="24.5" fill="#FFDA32" stroke="#FFDA32"/>
<path fill-rule="evenodd" clip-rule="evenodd" d="M30.0175 15.2147C30.0856 15.2825 30.1396 15.3632 30.1764 15.4519C30.2132 15.5407 30.2322 15.6359 30.2322 15.732C30.2322 15.8281 30.2132 15.9233 30.1764 16.012C30.1396 16.1008 30.0856 16.1814 30.0175 16.2493L21.7652 24.5002L30.0175 32.7511C30.1547 32.8883 30.2318 33.0744 30.2318 33.2684C30.2318 33.4624 30.1547 33.6485 30.0175 33.7857C29.8803 33.9229 29.6942 34 29.5002 34C29.3062 34 29.1201 33.9229 28.9829 33.7857L20.2147 25.0175C20.1466 24.9496 20.0927 24.869 20.0558 24.7802C20.019 24.6915 20 24.5963 20 24.5002C20 24.4041 20.019 24.3089 20.0558 24.2201C20.0927 24.1314 20.1466 24.0507 20.2147 23.9829L28.9829 15.2147C29.0508 15.1466 29.1314 15.0926 29.2202 15.0558C29.3089 15.019 29.4041 15 29.5002 15C29.5963 15 29.6915 15.019 29.7803 15.0558C29.869 15.0926 29.9497 15.1466 30.0175 15.2147V15.2147Z" fill="#1C2B38"/>
</svg>
