<svg width="50" height="50" viewBox="0 0 50 50" fill="none" xmlns="http://www.w3.org/2000/svg">
<circle cx="25" cy="24.9995" r="25" fill="white" fill-opacity="0.2"/>
<circle cx="25" cy="24.9995" r="24.5" stroke="white" stroke-opacity="0.2"/>
<path d="M33.5645 20.2784C33.2852 19.6368 32.8825 19.0553 32.379 18.5666C31.875 18.0764 31.2808 17.6869 30.6288 17.4192C29.9526 17.1405 29.2274 16.9979 28.4952 16.9995C27.468 16.9995 26.4658 17.2786 25.5948 17.8058C25.3865 17.9319 25.1886 18.0704 25.001 18.2213C24.8135 18.0704 24.6156 17.9319 24.4072 17.8058C23.5363 17.2786 22.5341 16.9995 21.5069 16.9995C20.7672 16.9995 20.0505 17.1401 19.3733 17.4192C18.7191 17.688 18.1294 18.0746 17.6231 18.5666C17.1189 19.0548 16.7161 19.6363 16.4376 20.2784C16.1479 20.9462 16 21.6553 16 22.3851C16 23.0735 16.1417 23.7909 16.423 24.5207C16.6584 25.1305 16.9959 25.7632 17.4272 26.402C18.1107 27.4129 19.0503 28.4673 20.2171 29.5361C22.1507 31.3079 24.0655 32.5318 24.1468 32.5814L24.6406 32.8956C24.8593 33.0341 25.1406 33.0341 25.3594 32.8956L25.8532 32.5814C25.9345 32.5297 27.8472 31.3079 29.7828 29.5361C30.9496 28.4673 31.8893 27.4129 32.5727 26.402C33.004 25.7632 33.3437 25.1305 33.577 24.5207C33.8583 23.7909 34 23.0735 34 22.3851C34.0021 21.6553 33.8541 20.9462 33.5645 20.2784Z" fill="white"/>
</svg>
