<svg width="11" height="14" viewBox="0 0 11 14" fill="none" xmlns="http://www.w3.org/2000/svg">
<path d="M5.50001 -0.000488281C4.04184 0.00123195 2.6439 0.581247 1.61282 1.61232C0.581741 2.6434 0.00172609 4.04135 5.85144e-06 5.49951C-0.00174059 6.69112 0.387496 7.8504 1.10801 8.79951C1.10801 8.79951 1.25801 8.99701 1.28251 9.02551L5.50001 13.9995L9.71951 9.02301C9.74151 8.99651 9.89201 8.79951 9.89201 8.79951L9.89251 8.79801C10.6127 7.84932 11.0017 6.69058 11 5.49951C10.9983 4.04135 10.4183 2.6434 9.38719 1.61232C8.35612 0.581247 6.95817 0.00123195 5.50001 -0.000488281ZM5.50001 7.49951C5.10444 7.49951 4.71776 7.38221 4.38887 7.16245C4.05997 6.94269 3.80362 6.63033 3.65225 6.26488C3.50087 5.89943 3.46126 5.49729 3.53844 5.10933C3.61561 4.72137 3.80609 4.365 4.08579 4.0853C4.3655 3.80559 4.72186 3.61511 5.10983 3.53794C5.49779 3.46077 5.89992 3.50038 6.26537 3.65175C6.63082 3.80313 6.94318 4.05947 7.16294 4.38837C7.38271 4.71727 7.50001 5.10395 7.50001 5.49951C7.49934 6.02974 7.28842 6.53806 6.91349 6.91299C6.53856 7.28792 6.03024 7.49885 5.50001 7.49951Z" fill="white"/>
</svg>
