<svg width="19" height="22" viewBox="0 0 19 22" fill="none" xmlns="http://www.w3.org/2000/svg">
<path d="M9.6001 12C11.257 12 12.6001 10.6569 12.6001 9C12.6001 7.34315 11.257 6 9.6001 6C7.94324 6 6.6001 7.34315 6.6001 9C6.6001 10.6569 7.94324 12 9.6001 12Z" stroke="#304659" stroke-width="2" stroke-linecap="round" stroke-linejoin="round"/>
<path d="M9.6001 1C7.47837 1 5.44353 1.84285 3.94324 3.34315C2.44295 4.84344 1.6001 6.87827 1.6001 9C1.6001 10.892 2.0021 12.13 3.1001 13.5L9.6001 21L16.1001 13.5C17.1981 12.13 17.6001 10.892 17.6001 9C17.6001 6.87827 16.7572 4.84344 15.257 3.34315C13.7567 1.84285 11.7218 1 9.6001 1V1Z" stroke="#304659" stroke-width="2" stroke-linecap="round" stroke-linejoin="round"/>
</svg>
