<svg width="25" height="25" viewBox="0 0 25 25" fill="none" xmlns="http://www.w3.org/2000/svg">
<path d="M19.35 16.6525L4.225 12.4525C4.00834 12.3858 3.83334 12.2691 3.7 12.1025C3.56667 11.9358 3.5 11.7358 3.5 11.5025V7.62747C3.5 7.4108 3.58767 7.2398 3.763 7.11447C3.93834 6.98913 4.12567 6.96013 4.325 7.02747L4.7 7.15247C4.8 7.1858 4.88334 7.2358 4.95 7.30247C5.01667 7.36913 5.06667 7.45247 5.1 7.55247L5.7 9.35247L10.5 10.7025V3.87747C10.5 3.59413 10.6127 3.3608 10.838 3.17747C11.0633 2.99413 11.3173 2.94413 11.6 3.02747L12.025 3.12747C12.175 3.1608 12.3043 3.2318 12.413 3.34047C12.5217 3.44913 12.6007 3.57813 12.65 3.72747L15.25 12.0025L20.25 13.4025C20.6333 13.5025 20.9377 13.7068 21.163 14.0155C21.3883 14.3241 21.5007 14.6698 21.5 15.0525C21.5 15.6025 21.275 16.0441 20.825 16.3775C20.375 16.7108 19.8833 16.8025 19.35 16.6525ZM4.5 21.7525C4.21667 21.7525 3.97934 21.6565 3.788 21.4645C3.59667 21.2725 3.50067 21.0351 3.5 20.7525C3.49934 20.4698 3.59534 20.2325 3.788 20.0405C3.98067 19.8485 4.218 19.7525 4.5 19.7525H20.5C20.7833 19.7525 21.021 19.8485 21.213 20.0405C21.405 20.2325 21.5007 20.4698 21.5 20.7525C21.4993 21.0351 21.4033 21.2728 21.212 21.4655C21.0207 21.6581 20.7833 21.7538 20.5 21.7525H4.5Z" fill="#0D7434"/>
</svg>
