<svg width="80" height="16" viewBox="0 0 80 16" fill="none" xmlns="http://www.w3.org/2000/svg">
<path d="M8 -0.000488281L10.116 5.08705L15.6085 5.52738L11.4238 9.11197L12.7023 14.4716L8 11.5995L3.29772 14.4716L4.5762 9.11197L0.391548 5.52738L5.88397 5.08705L8 -0.000488281Z" fill="#FFA432"/>
<path d="M24 -0.000488281L26.116 5.08705L31.6085 5.52738L27.4238 9.11197L28.7023 14.4716L24 11.5995L19.2977 14.4716L20.5762 9.11197L16.3915 5.52738L21.884 5.08705L24 -0.000488281Z" fill="#FFA432"/>
<path d="M40 -0.000488281L42.116 5.08705L47.6085 5.52738L43.4238 9.11197L44.7023 14.4716L40 11.5995L35.2977 14.4716L36.5762 9.11197L32.3915 5.52738L37.884 5.08705L40 -0.000488281Z" fill="#FFA432"/>
<path d="M56 -0.000488281L58.116 5.08705L63.6085 5.52738L59.4238 9.11197L60.7023 14.4716L56 11.5995L51.2977 14.4716L52.5762 9.11197L48.3915 5.52738L53.884 5.08705L56 -0.000488281Z" fill="#FFA432"/>
<path d="M72 -0.000488281L74.116 5.08705L79.6085 5.52738L75.4238 9.11197L76.7023 14.4716L72 11.5995L67.2977 14.4716L68.5762 9.11197L64.3915 5.52738L69.884 5.08705L72 -0.000488281Z" fill="#FFA432"/>
</svg>
