<svg width="51" height="50" viewBox="0 0 51 50" fill="none" xmlns="http://www.w3.org/2000/svg">
<circle cx="25" cy="25" r="25" transform="matrix(-1 0 0 1 50.6875 0)" fill="#FFDA32"/>
<path fill-rule="evenodd" clip-rule="evenodd" d="M20.9825 15.2147C20.9144 15.2825 20.8604 15.3632 20.8236 15.4519C20.7868 15.5407 20.7678 15.6359 20.7678 15.732C20.7678 15.8281 20.7868 15.9233 20.8236 16.012C20.8604 16.1008 20.9144 16.1814 20.9825 16.2493L29.2348 24.5002L20.9825 32.7511C20.8453 32.8883 20.7682 33.0744 20.7682 33.2684C20.7682 33.4624 20.8453 33.6485 20.9825 33.7857C21.1197 33.9229 21.3058 34 21.4998 34C21.6938 34 21.8799 33.9229 22.0171 33.7857L30.7853 25.0175C30.8534 24.9496 30.9074 24.869 30.9442 24.7802C30.981 24.6915 31 24.5963 31 24.5002C31 24.4041 30.981 24.3089 30.9442 24.2201C30.9074 24.1314 30.8534 24.0507 30.7853 23.9829L22.0171 15.2147C21.9492 15.1466 21.8686 15.0926 21.7798 15.0558C21.6911 15.019 21.5959 15 21.4998 15C21.4037 15 21.3085 15.019 21.2197 15.0558C21.131 15.0926 21.0503 15.1466 20.9825 15.2147Z" fill="#1C2B38"/>
</svg>
