<svg width="51" height="50" viewBox="0 0 51 50" fill="none" xmlns="http://www.w3.org/2000/svg">
<path d="M41.589 41.0429H44.4533C45.4005 41.0429 46.3089 40.6666 46.9787 39.9968C47.6484 39.3271 48.0247 38.4187 48.0247 37.4715V28.4179C48.0247 27.4707 47.6484 26.5623 46.9787 25.8925C46.3089 25.2227 45.4005 24.8465 44.4533 24.8465H42.4819M42.4819 24.8465V12.0536C42.4819 11.1064 42.1056 10.198 41.4358 9.52822C40.766 8.85845 39.8576 8.48218 38.9104 8.48218H6.08901C5.1418 8.48218 4.2334 8.85845 3.56363 9.52822C2.89385 10.198 2.51758 11.1064 2.51758 12.0536V37.9822C2.51758 39.6715 3.88901 41.0429 5.57829 41.0429H7.21401M42.4819 24.8465H2.51758M42.4819 15.0286H2.51758M16.014 15.0286V24.8322M28.7533 15.0286V24.8322" stroke="#0D7434" stroke-width="3" stroke-linecap="round" stroke-linejoin="round"/>
<path d="M17.1641 40.9929C17.1641 42.3152 16.6388 43.5833 15.7038 44.5184C14.7688 45.4534 13.5006 45.9786 12.1783 45.9786C10.856 45.9786 9.58791 45.4534 8.65291 44.5184C7.71791 43.5833 7.19263 42.3152 7.19263 40.9929C7.19263 39.6706 7.71791 38.4025 8.65291 37.4675C9.58791 36.5325 10.856 36.0072 12.1783 36.0072C13.5006 36.0072 14.7688 36.5325 15.7038 37.4675C16.6388 38.4025 17.1641 39.6706 17.1641 40.9929ZM17.1641 40.9929H31.6212M31.6212 40.9929C31.6212 42.3152 32.1465 43.5833 33.0815 44.5184C34.0165 45.4534 35.2846 45.9786 36.6069 45.9786C37.9292 45.9786 39.1973 45.4534 40.1323 44.5184C41.0674 43.5833 41.5926 42.3152 41.5926 40.9929C41.5926 39.6706 41.0674 38.4025 40.1323 37.4675C39.1973 36.5325 37.9292 36.0072 36.6069 36.0072C35.2846 36.0072 34.0165 36.5325 33.0815 37.4675C32.1465 38.4025 31.6212 39.6706 31.6212 40.9929Z" stroke="#0D7434" stroke-width="3" stroke-linecap="round" stroke-linejoin="round"/>
</svg>
